<?xml version="1.0" encoding="UTF-8"?>
<svg id="E-saalon_Primary-dark-Website" xmlns="http://www.w3.org/2000/svg" xmlns:xlink="http://www.w3.org/1999/xlink" viewBox="0 0 500 200">
  <defs>
    <style>
      .cls-1 {
        fill: #fff;
      }

      .cls-2 {
        fill: #0d1619;
      }

      .cls-3 {
        fill: url(#radial-gradient);
      }
    </style>
    <radialGradient id="radial-gradient" cx="-14421.3" cy="-8647.34" fx="-14421.3" fy="-8531.26" r="117.81" gradientTransform="translate(-14217.09 -4984.8) rotate(179.87) scale(1 .59) skewX(.13)" gradientUnits="userSpaceOnUse">
      <stop offset=".45" stop-color="#7b69ff"/>
      <stop offset=".49" stop-color="#7b69ff" stop-opacity=".98"/>
      <stop offset=".55" stop-color="#7b69ff" stop-opacity=".91"/>
      <stop offset=".61" stop-color="#7b69ff" stop-opacity=".8"/>
      <stop offset=".68" stop-color="#7b69ff" stop-opacity=".65"/>
      <stop offset=".75" stop-color="#7b69ff" stop-opacity=".46"/>
      <stop offset=".82" stop-color="#7b69ff" stop-opacity=".25"/>
      <stop offset=".82" stop-color="#7b69ff" stop-opacity=".24"/>
      <stop offset=".87" stop-color="#7b69ff" stop-opacity=".13"/>
      <stop offset=".91" stop-color="#7b69ff" stop-opacity=".06"/>
      <stop offset=".95" stop-color="#7b69ff" stop-opacity="0"/>
      <stop offset="1" stop-color="#7b69ff" stop-opacity="0"/>
    </radialGradient>
  </defs>
  <rect class="cls-2" x=".26" y="-1.11" width="501.67" height="201.33"/>
  <g>
    <ellipse class="cls-3" cx="236.51" cy="88.87" rx="130.24" ry="77.67" transform="translate(-.71 1.9) rotate(-.46)"/>
    <g>
      <path class="cls-1" d="M12.37,170.09l5.59,10.05,5.64-10.05h1.8l-6.66,11.5v6.96h-1.56v-6.96l-6.67-11.5h1.85Z"/>
      <path class="cls-1" d="M43.05,178.33v1.98c0,1.29-.17,2.46-.5,3.5-.33,1.04-.82,1.94-1.45,2.68s-1.38,1.31-2.26,1.71-1.87,.6-2.97,.6-2.05-.2-2.94-.6-1.64-.97-2.27-1.71c-.64-.74-1.13-1.64-1.47-2.68-.35-1.04-.52-2.21-.52-3.5v-1.98c0-1.29,.17-2.46,.51-3.5s.83-1.94,1.46-2.68,1.39-1.31,2.27-1.71c.88-.4,1.86-.6,2.93-.6s2.09,.2,2.97,.6,1.63,.97,2.27,1.71c.63,.74,1.12,1.64,1.46,2.68,.34,1.04,.51,2.21,.51,3.5Zm-1.55,1.98v-2c0-1.09-.12-2.07-.37-2.94s-.62-1.61-1.1-2.23c-.49-.62-1.08-1.09-1.78-1.42-.7-.33-1.5-.49-2.4-.49s-1.65,.17-2.34,.49-1.28,.8-1.77,1.42c-.49,.62-.86,1.36-1.12,2.23s-.39,1.85-.39,2.94v2c0,1.1,.13,2.09,.39,2.96s.63,1.62,1.12,2.24c.49,.62,1.08,1.1,1.78,1.43,.7,.33,1.48,.49,2.35,.49s1.7-.17,2.4-.49,1.28-.8,1.76-1.43c.48-.62,.85-1.37,1.1-2.24s.37-1.86,.37-2.96Z"/>
      <path class="cls-1" d="M59.83,170.09h1.56v12.5c0,1.39-.29,2.54-.88,3.46-.58,.92-1.37,1.61-2.35,2.07-.99,.46-2.07,.68-3.26,.68s-2.33-.23-3.31-.68c-.98-.46-1.76-1.14-2.33-2.07-.57-.92-.86-2.07-.86-3.46v-12.5h1.55v12.5c0,1.07,.21,1.97,.63,2.7,.42,.73,1.01,1.27,1.75,1.63,.74,.36,1.6,.55,2.56,.55s1.8-.18,2.55-.55c.74-.36,1.33-.91,1.75-1.63s.63-1.63,.63-2.7v-12.5Z"/>
      <path class="cls-1" d="M67.42,170.09h6c1.27,0,2.38,.21,3.32,.62s1.66,1.02,2.17,1.83c.51,.81,.77,1.8,.77,2.97,0,.87-.18,1.66-.55,2.37-.37,.71-.87,1.3-1.51,1.78-.64,.48-1.39,.8-2.23,.98l-.54,.2h-6.4l-.03-1.33h5.36c.96,0,1.77-.19,2.41-.56,.64-.37,1.13-.86,1.45-1.48,.33-.61,.49-1.27,.49-1.97,0-.84-.18-1.56-.54-2.17-.36-.61-.89-1.08-1.59-1.41-.7-.33-1.56-.49-2.57-.49h-4.44v17.11h-1.56v-18.46Zm11.4,18.46l-4.78-8.25h1.67s4.77,8.09,4.77,8.09v.17h-1.66Z"/>
      <path class="cls-1" d="M103.19,184c0-.51-.08-.96-.25-1.36s-.45-.75-.83-1.07c-.39-.32-.9-.61-1.55-.89-.65-.27-1.45-.55-2.42-.82-.92-.26-1.75-.55-2.5-.86s-1.38-.67-1.91-1.08c-.53-.41-.93-.88-1.21-1.43-.28-.54-.42-1.18-.42-1.91s.15-1.36,.46-1.94c.3-.58,.73-1.09,1.29-1.51,.55-.42,1.21-.75,1.97-.98,.76-.23,1.59-.34,2.49-.34,1.29,0,2.41,.25,3.35,.74s1.67,1.15,2.19,1.98,.78,1.76,.78,2.8h-1.56c0-.8-.19-1.52-.56-2.15s-.92-1.12-1.62-1.48c-.7-.36-1.56-.54-2.58-.54s-1.86,.15-2.55,.46c-.69,.31-1.21,.72-1.56,1.23s-.53,1.08-.53,1.7c0,.44,.08,.84,.25,1.21,.17,.37,.45,.71,.83,1.03,.38,.32,.89,.61,1.53,.89,.63,.28,1.42,.54,2.34,.78,.98,.27,1.85,.57,2.61,.9,.76,.33,1.4,.71,1.93,1.13,.52,.43,.92,.92,1.19,1.49,.27,.57,.41,1.23,.41,1.98s-.16,1.43-.48,2.02-.76,1.1-1.33,1.51-1.24,.73-2.02,.95c-.77,.22-1.62,.33-2.53,.33-.82,0-1.64-.11-2.45-.32-.81-.21-1.55-.54-2.22-.98s-1.21-1.02-1.61-1.72c-.4-.7-.6-1.54-.6-2.51h1.55c0,.78,.16,1.43,.47,1.96,.31,.53,.73,.96,1.25,1.29s1.09,.57,1.72,.72,1.26,.22,1.9,.22c.97,0,1.81-.14,2.53-.43,.71-.29,1.27-.69,1.66-1.21,.39-.52,.59-1.13,.59-1.82Z"/>
      <path class="cls-1" d="M115.87,171.19l-6.39,17.35h-1.62l6.97-18.46h1.13l-.09,1.1Zm4.67,10.84v1.34h-9.8v-1.34h9.8Zm1.14,6.52l-6.4-17.35-.09-1.1h1.13l6.99,18.46h-1.62Z"/>
      <path class="cls-1" d="M129.28,170.09v18.46h-1.56v-18.46h1.56Zm9.11,17.13v1.33h-9.57v-1.33h9.57Z"/>
      <path class="cls-1" d="M155.9,178.33v1.98c0,1.29-.17,2.46-.5,3.5-.33,1.04-.82,1.94-1.45,2.68s-1.38,1.31-2.26,1.71-1.87,.6-2.97,.6-2.05-.2-2.94-.6-1.64-.97-2.27-1.71c-.64-.74-1.13-1.64-1.47-2.68-.35-1.04-.52-2.21-.52-3.5v-1.98c0-1.29,.17-2.46,.51-3.5,.34-1.04,.83-1.94,1.46-2.68s1.39-1.31,2.27-1.71c.88-.4,1.86-.6,2.93-.6s2.09,.2,2.97,.6,1.63,.97,2.27,1.71c.63,.74,1.12,1.64,1.46,2.68,.34,1.04,.51,2.21,.51,3.5Zm-1.55,1.98v-2c0-1.09-.12-2.07-.37-2.94s-.62-1.61-1.1-2.23c-.49-.62-1.08-1.09-1.78-1.42-.7-.33-1.5-.49-2.4-.49s-1.65,.17-2.34,.49-1.28,.8-1.77,1.42c-.49,.62-.86,1.36-1.12,2.23s-.39,1.85-.39,2.94v2c0,1.1,.13,2.09,.39,2.96s.63,1.62,1.12,2.24c.49,.62,1.08,1.1,1.78,1.43,.7,.33,1.48,.49,2.35,.49s1.7-.17,2.4-.49,1.28-.8,1.76-1.43c.48-.62,.85-1.37,1.1-2.24s.37-1.86,.37-2.96Z"/>
      <path class="cls-1" d="M175.28,170.09v18.46h-1.57l-10.61-15.77v15.77h-1.56v-18.46h1.56l10.63,15.77v-15.77h1.55Z"/>
      <path class="cls-1" d="M180.72,187.62c0-.3,.09-.55,.29-.75,.19-.21,.45-.31,.78-.31s.6,.1,.8,.31c.19,.21,.29,.46,.29,.75s-.1,.53-.29,.74c-.19,.2-.46,.3-.8,.3s-.59-.1-.78-.3c-.19-.2-.29-.45-.29-.74Z"/>
      <path class="cls-1" d="M195.56,170.09l5.59,10.05,5.64-10.05h1.8l-6.66,11.5v6.96h-1.56v-6.96l-6.67-11.5h1.85Z"/>
      <path class="cls-1" d="M226.25,178.33v1.98c0,1.29-.17,2.46-.5,3.5-.33,1.04-.82,1.94-1.45,2.68s-1.38,1.31-2.26,1.71-1.87,.6-2.97,.6-2.05-.2-2.94-.6-1.64-.97-2.27-1.71c-.64-.74-1.13-1.64-1.47-2.68-.35-1.04-.52-2.21-.52-3.5v-1.98c0-1.29,.17-2.46,.51-3.5s.83-1.94,1.46-2.68,1.39-1.31,2.27-1.71c.88-.4,1.86-.6,2.93-.6s2.09,.2,2.97,.6,1.63,.97,2.27,1.71c.63,.74,1.12,1.64,1.46,2.68,.34,1.04,.51,2.21,.51,3.5Zm-1.55,1.98v-2c0-1.09-.12-2.07-.37-2.94s-.62-1.61-1.1-2.23c-.49-.62-1.08-1.09-1.78-1.42-.7-.33-1.5-.49-2.4-.49s-1.65,.17-2.34,.49-1.28,.8-1.77,1.42c-.49,.62-.86,1.36-1.12,2.23s-.39,1.85-.39,2.94v2c0,1.1,.13,2.09,.39,2.96s.63,1.62,1.12,2.24c.49,.62,1.08,1.1,1.78,1.43,.7,.33,1.48,.49,2.35,.49s1.7-.17,2.4-.49,1.28-.8,1.76-1.43c.48-.62,.85-1.37,1.1-2.24s.37-1.86,.37-2.96Z"/>
      <path class="cls-1" d="M243.02,170.09h1.56v12.5c0,1.39-.29,2.54-.88,3.46-.58,.92-1.37,1.61-2.35,2.07-.99,.46-2.07,.68-3.26,.68s-2.33-.23-3.31-.68c-.98-.46-1.76-1.14-2.33-2.07-.57-.92-.86-2.07-.86-3.46v-12.5h1.55v12.5c0,1.07,.21,1.97,.63,2.7,.42,.73,1.01,1.27,1.75,1.63,.74,.36,1.6,.55,2.56,.55s1.8-.18,2.55-.55c.74-.36,1.33-.91,1.75-1.63,.42-.73,.63-1.63,.63-2.7v-12.5Z"/>
      <path class="cls-1" d="M250.61,170.09h6c1.27,0,2.38,.21,3.32,.62,.94,.41,1.66,1.02,2.17,1.83,.51,.81,.77,1.8,.77,2.97,0,.87-.18,1.66-.55,2.37-.37,.71-.87,1.3-1.51,1.78-.64,.48-1.39,.8-2.23,.98l-.54,.2h-6.4l-.03-1.33h5.36c.96,0,1.77-.19,2.41-.56,.64-.37,1.13-.86,1.45-1.48,.33-.61,.49-1.27,.49-1.97,0-.84-.18-1.56-.54-2.17-.36-.61-.89-1.08-1.59-1.41-.7-.33-1.56-.49-2.57-.49h-4.44v17.11h-1.56v-18.46Zm11.4,18.46l-4.78-8.25h1.67s4.77,8.09,4.77,8.09v.17h-1.66Z"/>
      <path class="cls-1" d="M288.45,170.09v1.34h-14.18v-1.34h14.18Zm-6.32,0v18.46h-1.55v-18.46h1.55Z"/>
      <path class="cls-1" d="M295.04,170.09v18.46h-1.56v-18.46h1.56Z"/>
      <path class="cls-1" d="M301.73,170.09h1.38l.16,10.39v8.06h-1.55v-18.46Zm.48,0h1.57l6.82,16.25,6.83-16.25h1.56l-7.8,18.46h-1.19l-7.8-18.46Zm15.91,0h1.38v18.46h-1.56v-8.06l.18-10.39Z"/>
      <path class="cls-1" d="M327.45,170.09v18.46h-1.56v-18.46h1.56Zm9.85,0v1.34h-10.32v-1.34h10.32Zm-1.23,8.28v1.33h-9.09v-1.33h9.09Zm1.29,8.85v1.33h-10.38v-1.33h10.38Z"/>
      <path class="cls-1" d="M341.4,187.62c0-.3,.09-.55,.29-.75,.19-.21,.45-.31,.78-.31s.6,.1,.8,.31c.19,.21,.29,.46,.29,.75s-.1,.53-.29,.74c-.19,.2-.46,.3-.8,.3s-.59-.1-.78-.3c-.19-.2-.29-.45-.29-.74Z"/>
      <path class="cls-1" d="M356.24,170.09l5.59,10.05,5.64-10.05h1.8l-6.66,11.5v6.96h-1.56v-6.96l-6.67-11.5h1.85Z"/>
      <path class="cls-1" d="M386.92,178.33v1.98c0,1.29-.17,2.46-.5,3.5-.33,1.04-.82,1.94-1.45,2.68s-1.38,1.31-2.26,1.71-1.87,.6-2.97,.6-2.05-.2-2.94-.6-1.64-.97-2.27-1.71c-.64-.74-1.13-1.64-1.47-2.68-.35-1.04-.52-2.21-.52-3.5v-1.98c0-1.29,.17-2.46,.51-3.5s.83-1.94,1.46-2.68,1.39-1.31,2.27-1.71c.88-.4,1.86-.6,2.93-.6s2.09,.2,2.97,.6,1.63,.97,2.27,1.71c.63,.74,1.12,1.64,1.46,2.68,.34,1.04,.51,2.21,.51,3.5Zm-1.55,1.98v-2c0-1.09-.12-2.07-.37-2.94-.25-.87-.62-1.61-1.1-2.23-.49-.62-1.08-1.09-1.78-1.42-.7-.33-1.5-.49-2.4-.49s-1.65,.17-2.34,.49-1.28,.8-1.77,1.42c-.49,.62-.86,1.36-1.12,2.23s-.39,1.85-.39,2.94v2c0,1.1,.13,2.09,.39,2.96s.63,1.62,1.12,2.24c.49,.62,1.08,1.1,1.78,1.43,.7,.33,1.48,.49,2.35,.49s1.7-.17,2.4-.49,1.28-.8,1.76-1.43c.48-.62,.85-1.37,1.1-2.24,.25-.87,.37-1.86,.37-2.96Z"/>
      <path class="cls-1" d="M403.7,170.09h1.56v12.5c0,1.39-.29,2.54-.88,3.46-.58,.92-1.37,1.61-2.35,2.07-.99,.46-2.07,.68-3.26,.68s-2.33-.23-3.31-.68c-.98-.46-1.76-1.14-2.33-2.07-.57-.92-.86-2.07-.86-3.46v-12.5h1.55v12.5c0,1.07,.21,1.97,.63,2.7,.42,.73,1.01,1.27,1.75,1.63,.74,.36,1.6,.55,2.56,.55s1.8-.18,2.55-.55c.74-.36,1.33-.91,1.75-1.63,.42-.73,.63-1.63,.63-2.7v-12.5Z"/>
      <path class="cls-1" d="M411.29,170.09h6c1.27,0,2.38,.21,3.32,.62s1.66,1.02,2.17,1.83c.51,.81,.77,1.8,.77,2.97,0,.87-.18,1.66-.55,2.37-.37,.71-.87,1.3-1.51,1.78-.64,.48-1.39,.8-2.23,.98l-.54,.2h-6.4l-.03-1.33h5.36c.96,0,1.77-.19,2.41-.56,.64-.37,1.13-.86,1.45-1.48,.33-.61,.49-1.27,.49-1.97,0-.84-.18-1.56-.54-2.17-.36-.61-.89-1.08-1.59-1.41-.7-.33-1.56-.49-2.57-.49h-4.44v17.11h-1.56v-18.46Zm11.4,18.46l-4.78-8.25h1.67s4.77,8.09,4.77,8.09v.17h-1.66Z"/>
      <path class="cls-1" d="M436.64,170.09l3.37,13.45,1.02,5.01h-1.26l-4.73-18.46h1.6Zm4.65,13.58l4.01-13.58h1.26l-1.01,4.03-4.27,14.43h-1.2l1.23-4.88Zm5.4-13.58l3.96,13.58,1.22,4.88h-1.2l-4.18-14.43-1.03-4.03h1.24Zm5.26,13.45l3.32-13.45h1.6l-4.72,18.46h-1.26l1.05-5.01Z"/>
      <path class="cls-1" d="M467.09,171.19l-6.39,17.35h-1.62l6.97-18.46h1.13l-.09,1.1Zm4.67,10.84v1.34h-9.8v-1.34h9.8Zm1.14,6.52l-6.4-17.35-.09-1.1h1.13l6.99,18.46h-1.62Z"/>
      <path class="cls-1" d="M477.56,170.09l5.59,10.05,5.64-10.05h1.8l-6.66,11.5v6.96h-1.56v-6.96l-6.67-11.5h1.85Z"/>
    </g>
    <g>
      <path class="cls-1" d="M134.82,133.57c-.16-4.11-1.35-8.22-3.38-11.81-3.7-6.55-9.89-11.45-16.72-14.59-6.83-3.15-14.3-4.65-21.76-5.58-2.85-.35-5.82-.66-8.28-2.15-2.46-1.49-4.23-4.57-3.23-7.26,.63-1.7,2.18-2.88,3.8-3.69,6.23-3.12,15.29-1.87,20.2,3.21,1.42,1.46,3.7,1.7,5.49,.73l6.7-3.61c2.56-1.4,3.18-4.87,1.17-6.99-9.8-10.36-29-12.36-41.58-6.81-4.58,1.69-7.97,4.58-10.18,7.97-3.54,5.45-4.64,12.09-2.93,17.95,1.05,3.6,3.16,6.91,6.42,9.46,9.08,7.1,20.8,6.51,31.32,9.7,2.42,.73,4.82,2.25,5.62,4.64,.75,2.24-.12,4.8-1.75,6.51-1.63,1.71-3.89,2.69-6.19,3.26-23.21,5.82-27.25-20.89-42.02-30.93-3.53-2.4-7.49-4.25-11.63-5.4-7.07-1.98-14.63-1.9-21.31,.97-.39-1.7-.38-3.95,.51-5.56,.7-1.27,1.96-2.15,3.31-2.68,6.18-2.44,11.2,.98,17.23,.32,.18-.02,.35-.05,.52-.08,2.49-.54,4.22-2.89,3.94-5.48l-.97-8.36c-.27-2.24-1.97-4.02-4.17-4.4-3.24-.55-6.43-1.25-9.57-2.12-9.08-2.49-17.67-6.34-25.64-11.61-3.36-2.21-7.82,.29-7.73,4.31,2.94,30.77,3.14,61.79,3.14,92.68,0,3.61,4.03,5.75,6.98,3.7,3.62-2.5,7.27-4.58,10.9-6.32,.54-.26,1.08-.51,1.61-.75,.46-.21,1.13-.49,1.94-.81,3.67-1.46,10.1-3.78,11.63-3.92,1.73-.46,3.42-.83,5.09-1.14,1.97-.37,3.45-1.98,3.63-3.98l.71-7.49c.22-2.49-1.61-4.67-4.09-4.89-3.24-.29-7.92-.27-13.04,1.2-.55,.16-1.11,.22-1.64,.17-2.28-.17-4.19-2.04-4.17-4.5,0-.07,.02-.1,.02-.1,0-.29,0-.56,.02-.85,.6-9.73,8.47-12.72,16.13-11.26,6.93,1.33,9.31,4.84,12.38,10.62,2.64,4.96,6.11,9.46,10.13,13.38,8.14,7.94,18.5,13.55,29.45,16.52,7.36,1.99,15.19,2.9,22.6,1.13,7.42-1.76,14.37-6.49,17.53-13.43,1.41-3.09,1.99-6.48,1.86-9.87Zm-77.13-16.23c-.38,.32-.85,.48-1.32,.48-.59,0-1.18-.25-1.58-.74-1.15-1.38-2.26-2.56-3.41-3.6-6.68-6.09-16.58-7.39-24.08-3.15-.99,.56-2.25,.21-2.81-.78-.56-.99-.21-2.25,.78-2.81,4.54-2.56,9.75-3.53,15.08-2.78,5.1,.71,10,3.01,13.8,6.48,1.28,1.17,2.52,2.48,3.79,4,.73,.87,.61,2.17-.26,2.9Z"/>
      <g>
        <path class="cls-1" d="M219.28,136.88c-1.06-.02-2.85-.23-4.26-1.46-1.82-1.6-2.13-4.04-2.13-5.57,0-2.34-.54-11.53-.54-13.88,0-13.33,.54-26.48-9.01-35.68-10.27-10.27-33.87-11.53-47.02-3.06-4.87,3.06-9.01,6.67-12.07,10.81l12.07,12.07c4.86-7.93,11.53-11.53,19.28-11.53,7.21-.54,13.88,3.06,15.68,10.27-16.22,4.15-36.76,6.13-45.95,22.35-4.14,7.93-3.06,18.2,3.06,24.68,4.86,5.41,12.61,7.21,20,7.21,11.53,0,22.35-2.34,29.55-12.61,3.6,8.47,11.53,12.61,21.08,12.61,1.27,0,3.07-.54,4.15-.54v-15.68h-3.89Zm-46.75,2.16c-5.41,0-9.73-2.34-9.73-8.47s4.86-8.47,10.81-9.73l17.48-4.87c.18,0,.72,4.87,.72,4.87,.54,11.53-9.01,18.2-19.28,18.2Z"/>
        <path class="cls-1" d="M306.28,136.88c-1.06-.02-2.85-.23-4.26-1.46-1.82-1.6-2.13-4.04-2.13-5.57,0-2.34-.54-11.53-.54-13.88,0-13.33,.54-26.48-9.01-35.68-10.27-10.27-33.87-11.53-47.03-3.06-4.86,3.06-9.01,6.67-12.07,10.81l12.07,12.07c4.86-7.93,11.53-11.53,19.28-11.53,7.21-.54,13.88,3.06,15.68,10.27-16.22,4.15-36.76,6.13-45.95,22.35-4.14,7.93-3.06,18.2,3.06,24.68,4.87,5.41,12.61,7.21,20,7.21,11.53,0,22.34-2.34,29.55-12.61,3.61,8.47,11.53,12.61,21.09,12.61,1.26,0,3.06-.54,4.14-.54v-15.68h-3.88Zm-46.75,2.16c-5.4,0-9.73-2.34-9.73-8.47s4.87-8.47,10.81-9.73l17.48-4.87c.18,0,.72,4.87,.72,4.87,.54,11.53-9.01,18.2-19.28,18.2Z"/>
        <path class="cls-1" d="M337.5,50.33v102.76h-20.54V41.38h.02c7.89,.9,15.26,3.69,19.91,8.34,.22,.2,.41,.41,.61,.61Z"/>
        <path class="cls-1" d="M497.99,153.09h-8.43c-3.22-8.43-2.9-18.03-2.6-27.33,.12-3.7,.25-7.52,.15-11.25-.02-.73-.62-1.32-1.35-1.32h-.03c-.75,.02-1.34,.64-1.32,1.38,.09,3.65-.03,7.43-.15,11.09-.3,9.23-.62,18.75,2.42,27.42h-8.5c-5.41-12.61-2.34-27.21-2.34-41.08,0-3.61,0-7.93-1.8-11.53-2.35-4.86-7.93-8.47-13.33-8.47s-10.81,3.07-13.33,7.93c-2.34,4.14-2.34,9.01-2.34,13.88v39.28h-20.54V69.88h.02c4.72,.54,9.26,1.77,13.14,3.64,2.61,1.28,4.92,2.85,6.78,4.7,.22,.2,.41,.42,.61,.62v4.88c6.67-9.73,21.08-12.61,32.61-7.93,11.53,4.69,15.14,12.61,15.68,13.88,1.26,2.34,1.8,5.41,2.34,7.93,3.06,18.74-3.06,37.48,2.34,55.5Z"/>
        <path class="cls-1" d="M415.28,95.44c-1.66-4.9-4.07-9.15-7.23-12.78-3.16-3.63-7.02-6.45-11.57-8.47-4.55-2.02-9.72-3.03-15.52-3.03s-10.89,1.01-15.44,3.03c-4.55,2.02-8.4,4.85-11.54,8.47-3.14,3.63-5.54,7.89-7.19,12.78-1.66,4.89-2.49,10.19-2.49,15.88v1.68c0,5.7,.83,10.98,2.49,15.85,1.65,4.87,4.06,9.12,7.23,12.74,3.17,3.63,7.02,6.45,11.57,8.47,4.55,2.02,9.72,3.03,15.52,3.03s10.88-1.01,15.41-3.03c4.53-2.02,8.38-4.85,11.54-8.47,3.17-3.63,5.58-7.88,7.23-12.74,1.65-4.87,2.48-10.15,2.48-15.85v-1.68c0-5.69-.83-10.99-2.48-15.88Zm-15.12,17.56c0,3.56-.38,6.91-1.13,10.08-.76,3.17-1.91,5.94-3.47,8.33-1.56,2.38-3.54,4.26-5.95,5.62-2.41,1.36-5.25,2.04-8.51,2.04s-6.26-.68-8.69-2.04c-2.43-1.36-4.43-3.24-5.99-5.62-1.56-2.39-2.7-5.16-3.44-8.33-.73-3.17-1.09-6.52-1.09-10.08v-1.68c0-3.5,.36-6.83,1.09-9.97,.73-3.14,1.88-5.93,3.44-8.36,1.55-2.44,3.54-4.35,5.95-5.73,2.41-1.39,5.27-2.09,8.58-2.09s6.17,.69,8.58,2.09c2.41,1.38,4.4,3.3,5.99,5.73,1.59,2.43,2.75,5.22,3.51,8.36,.75,3.14,1.13,6.46,1.13,9.97v1.68Z"/>
      </g>
    </g>
  </g>
</svg>