<?xml version="1.0" encoding="UTF-8"?>
<svg id="E-saalon_FullColor-no-slogan" xmlns="http://www.w3.org/2000/svg" viewBox="0 0 500 200">
  <defs>
    <style>
      .cls-1 {
        fill: #8a7cff;
      }
    </style>
  </defs>
  <path class="cls-1" d="M135.29,132.42c-.16-4.09-1.35-8.19-3.37-11.76-3.68-6.52-9.85-11.4-16.65-14.53-6.8-3.13-14.24-4.63-21.67-5.55-2.84-.35-5.8-.66-8.25-2.14-2.45-1.48-4.21-4.55-3.22-7.23,.63-1.69,2.17-2.87,3.78-3.67,6.21-3.11,15.23-1.87,20.11,3.2,1.42,1.45,3.68,1.69,5.47,.73l6.67-3.6c2.55-1.39,3.16-4.85,1.17-6.96-9.76-10.32-28.88-12.31-41.41-6.79-4.56,1.69-7.94,4.56-10.13,7.93-3.52,5.43-4.62,12.04-2.92,17.87,1.04,3.59,3.14,6.88,6.4,9.42,9.04,7.07,20.71,6.48,31.19,9.66,2.41,.73,4.8,2.24,5.6,4.62,.74,2.23-.12,4.78-1.74,6.49-1.62,1.71-3.88,2.67-6.16,3.25-23.12,5.79-27.14-20.8-41.85-30.81-3.51-2.39-7.46-4.23-11.58-5.38-7.05-1.97-14.57-1.89-21.22,.96-.39-1.69-.38-3.94,.51-5.54,.7-1.26,1.95-2.14,3.29-2.67,6.16-2.43,11.15,.98,17.15,.32,.18-.02,.35-.05,.52-.08,2.48-.54,4.2-2.88,3.92-5.46l-.96-8.32c-.27-2.23-1.96-4.01-4.15-4.38-3.23-.55-6.41-1.24-9.53-2.11-9.04-2.48-17.6-6.31-25.54-11.56-3.34-2.2-7.79,.29-7.7,4.29,2.93,30.65,3.12,61.53,3.12,92.3,0,3.6,4.02,5.73,6.95,3.68,3.61-2.49,7.24-4.56,10.86-6.29,.54-.26,1.07-.51,1.61-.75,.46-.21,1.13-.49,1.93-.81,3.66-1.46,10.06-3.77,11.58-3.9,1.72-.46,3.41-.83,5.07-1.13,1.96-.37,3.43-1.98,3.62-3.97l.71-7.46c.22-2.48-1.6-4.65-4.07-4.87-3.23-.29-7.89-.27-12.99,1.2-.55,.16-1.1,.22-1.64,.17-2.27-.17-4.17-2.03-4.16-4.48,0-.07,.02-.1,.02-.1,0-.29,0-.56,.02-.84,.6-9.69,8.44-12.67,16.06-11.21,6.9,1.32,9.27,4.82,12.33,10.58,2.63,4.94,6.09,9.42,10.09,13.32,8.11,7.9,18.42,13.5,29.33,16.45,7.33,1.99,15.13,2.88,22.51,1.13,7.39-1.76,14.32-6.47,17.46-13.37,1.4-3.08,1.98-6.45,1.85-9.83Zm-76.81-16.16c-.38,.32-.85,.48-1.31,.48-.59,0-1.17-.25-1.58-.74-1.15-1.37-2.25-2.55-3.39-3.59-6.65-6.07-16.51-7.36-23.98-3.14-.99,.56-2.24,.21-2.79-.78-.56-.99-.21-2.24,.78-2.79,4.52-2.55,9.71-3.51,15.01-2.77,5.08,.71,9.96,3,13.75,6.46,1.28,1.16,2.51,2.47,3.78,3.99,.73,.87,.61,2.16-.26,2.89Z"/>
  <g>
    <path class="cls-1" d="M219.4,135.72c-1.05-.02-2.83-.22-4.24-1.46-1.82-1.6-2.12-4.03-2.12-5.54,0-2.33-.54-11.48-.54-13.82,0-13.28,.54-26.38-8.97-35.53-10.23-10.23-33.74-11.49-46.83-3.05-4.85,3.05-8.97,6.64-12.02,10.77l12.02,12.02c4.84-7.89,11.48-11.48,19.2-11.48,7.18-.54,13.82,3.05,15.61,10.23-16.15,4.13-36.61,6.1-45.76,22.25-4.13,7.89-3.05,18.12,3.05,24.58,4.84,5.39,12.56,7.18,19.92,7.18,11.49,0,22.25-2.33,29.43-12.56,3.59,8.44,11.49,12.56,20.99,12.56,1.26,0,3.05-.54,4.13-.54v-15.61h-3.87Zm-46.55,2.15c-5.39,0-9.69-2.33-9.69-8.44s4.84-8.43,10.77-9.69l17.41-4.85c.18,0,.72,4.85,.72,4.85,.54,11.48-8.97,18.12-19.2,18.12Z"/>
    <path class="cls-1" d="M306.05,135.72c-1.06-.02-2.84-.22-4.25-1.46-1.82-1.6-2.12-4.03-2.12-5.54,0-2.33-.54-11.48-.54-13.82,0-13.28,.54-26.38-8.97-35.53-10.23-10.23-33.74-11.49-46.84-3.05-4.84,3.05-8.97,6.64-12.02,10.77l12.02,12.02c4.84-7.89,11.49-11.48,19.2-11.48,7.18-.54,13.82,3.05,15.61,10.23-16.15,4.13-36.61,6.1-45.76,22.25-4.13,7.89-3.05,18.12,3.05,24.58,4.85,5.39,12.56,7.18,19.92,7.18,11.48,0,22.25-2.33,29.43-12.56,3.59,8.44,11.49,12.56,21,12.56,1.26,0,3.05-.54,4.13-.54v-15.61h-3.87Zm-46.56,2.15c-5.38,0-9.69-2.33-9.69-8.44s4.85-8.43,10.77-9.69l17.41-4.85c.18,0,.72,4.85,.72,4.85,.54,11.48-8.97,18.12-19.2,18.12Z"/>
    <path class="cls-1" d="M337.14,49.53v102.34h-20.46V40.61h.02c7.86,.9,15.2,3.68,19.83,8.31,.22,.2,.41,.41,.61,.61Z"/>
    <path class="cls-1" d="M496.97,151.87h-8.4c-3.2-8.4-2.89-17.95-2.59-27.21,.12-3.68,.25-7.49,.15-11.2-.02-.73-.61-1.31-1.35-1.31h-.03c-.74,.02-1.33,.64-1.31,1.38,.09,3.63-.03,7.4-.15,11.04-.3,9.19-.61,18.67,2.41,27.3h-8.47c-5.39-12.56-2.33-27.1-2.33-40.91,0-3.59,0-7.9-1.79-11.49-2.34-4.84-7.9-8.44-13.28-8.44s-10.77,3.05-13.28,7.9c-2.33,4.13-2.33,8.97-2.33,13.82v39.12h-20.46V69h.02c4.7,.54,9.23,1.76,13.08,3.62,2.6,1.27,4.9,2.83,6.75,4.68,.22,.2,.41,.42,.61,.61v4.86c6.64-9.69,20.99-12.56,32.48-7.9,11.48,4.67,15.07,12.56,15.61,13.82,1.26,2.33,1.79,5.39,2.33,7.9,3.05,18.66-3.05,37.32,2.33,55.27Z"/>
    <path class="cls-1" d="M414.6,94.45c-1.65-4.88-4.05-9.11-7.2-12.73-3.15-3.61-6.99-6.42-11.53-8.44-4.53-2.01-9.68-3.02-15.45-3.02s-10.85,1.01-15.38,3.02c-4.53,2.01-8.36,4.83-11.49,8.44-3.13,3.61-5.52,7.85-7.16,12.73-1.65,4.87-2.48,10.14-2.48,15.81v1.67c0,5.67,.83,10.93,2.48,15.78,1.65,4.85,4.05,9.08,7.2,12.69,3.15,3.61,6.99,6.42,11.53,8.44,4.53,2.01,9.68,3.02,15.45,3.02s10.84-1.01,15.34-3.02c4.51-2.01,8.34-4.83,11.49-8.44,3.15-3.61,5.55-7.84,7.2-12.69,1.65-4.85,2.47-10.11,2.47-15.78v-1.67c0-5.67-.83-10.94-2.47-15.81Zm-15.06,17.49c0,3.54-.38,6.88-1.13,10.04-.75,3.15-1.91,5.92-3.46,8.29-1.55,2.37-3.53,4.24-5.92,5.6-2.4,1.36-5.22,2.04-8.47,2.04s-6.23-.68-8.66-2.04c-2.42-1.35-4.41-3.22-5.96-5.6-1.55-2.38-2.69-5.14-3.42-8.29-.73-3.15-1.09-6.49-1.09-10.04v-1.67c0-3.49,.36-6.8,1.09-9.93,.73-3.13,1.87-5.9,3.42-8.32,1.55-2.43,3.53-4.33,5.92-5.71,2.4-1.39,5.25-2.08,8.54-2.08s6.15,.69,8.55,2.08c2.4,1.38,4.39,3.28,5.96,5.71,1.58,2.42,2.74,5.2,3.49,8.32,.75,3.13,1.13,6.44,1.13,9.93v1.67Z"/>
  </g>
</svg>