<?xml version="1.0" encoding="UTF-8"?>
<svg id="E-saalon_Primary-intagram" xmlns="http://www.w3.org/2000/svg" xmlns:xlink="http://www.w3.org/1999/xlink" viewBox="0 0 1080 1080">
  <defs>
    <style>
      .cls-1 {
        fill: #0d1619;
      }

      .cls-2 {
        fill: #3a2066;
      }

      .cls-3 {
        fill: url(#radial-gradient);
      }
    </style>
    <radialGradient id="radial-gradient" cx="-14709.15" cy="-11540.98" fx="-14709.15" fy="-11292.29" r="252.39" gradientTransform="translate(-14241.9 -6265.43) rotate(179.87) scale(1 .59) skewX(.13)" gradientUnits="userSpaceOnUse">
      <stop offset=".45" stop-color="#7b69ff"/>
      <stop offset=".49" stop-color="#7b69ff" stop-opacity=".98"/>
      <stop offset=".55" stop-color="#7b69ff" stop-opacity=".91"/>
      <stop offset=".61" stop-color="#7b69ff" stop-opacity=".8"/>
      <stop offset=".68" stop-color="#7b69ff" stop-opacity=".65"/>
      <stop offset=".75" stop-color="#7b69ff" stop-opacity=".46"/>
      <stop offset=".82" stop-color="#7b69ff" stop-opacity=".25"/>
      <stop offset=".82" stop-color="#7b69ff" stop-opacity=".24"/>
      <stop offset=".87" stop-color="#7b69ff" stop-opacity=".13"/>
      <stop offset=".91" stop-color="#7b69ff" stop-opacity=".06"/>
      <stop offset=".95" stop-color="#7b69ff" stop-opacity="0"/>
      <stop offset="1" stop-color="#7b69ff" stop-opacity="0"/>
    </radialGradient>
  </defs>
  <ellipse class="cls-3" cx="511.1" cy="516.16" rx="279.04" ry="166.39" transform="translate(-4.13 4.13) rotate(-.46)"/>
  <g>
    <path class="cls-2" d="M30.9,690.15l11.98,21.54,12.09-21.54h3.86l-14.26,24.63v14.91h-3.34v-14.91l-14.28-24.63h3.96Z"/>
    <path class="cls-2" d="M96.63,707.81v4.24c0,2.77-.35,5.27-1.07,7.51-.72,2.24-1.75,4.15-3.1,5.74-1.35,1.59-2.96,2.82-4.85,3.67-1.88,.85-4,1.28-6.36,1.28s-4.4-.43-6.29-1.28c-1.89-.85-3.51-2.07-4.87-3.67-1.36-1.59-2.41-3.51-3.15-5.74-.74-2.24-1.11-4.74-1.11-7.51v-4.24c0-2.77,.37-5.27,1.1-7.51,.73-2.24,1.78-4.15,3.14-5.74s2.98-2.82,4.86-3.67c1.88-.85,3.97-1.28,6.27-1.28s4.47,.43,6.36,1.28c1.88,.85,3.5,2.07,4.86,3.67,1.36,1.59,2.4,3.51,3.12,5.74,.72,2.24,1.08,4.74,1.08,7.51Zm-3.31,4.24v-4.29c0-2.34-.27-4.44-.8-6.3-.54-1.86-1.32-3.46-2.36-4.78-1.05-1.32-2.31-2.33-3.82-3.04-1.5-.71-3.21-1.06-5.13-1.06s-3.54,.35-5.02,1.06-2.75,1.72-3.79,3.04c-1.04,1.32-1.84,2.92-2.39,4.78-.55,1.86-.83,3.96-.83,6.3v4.29c0,2.35,.27,4.47,.83,6.34,.55,1.87,1.35,3.48,2.4,4.81,1.05,1.33,2.32,2.35,3.82,3.06,1.49,.71,3.17,1.06,5.04,1.06s3.65-.35,5.13-1.06,2.74-1.72,3.78-3.06c1.03-1.33,1.81-2.93,2.35-4.81,.54-1.87,.8-3.99,.8-6.34Z"/>
    <path class="cls-2" d="M132.57,690.15h3.34v26.78c0,2.97-.62,5.44-1.88,7.41-1.25,1.97-2.93,3.45-5.04,4.43-2.11,.98-4.44,1.47-6.99,1.47s-4.99-.49-7.09-1.47c-2.1-.98-3.76-2.45-4.99-4.43-1.22-1.97-1.83-4.44-1.83-7.41v-26.78h3.32v26.78c0,2.3,.45,4.23,1.36,5.78,.9,1.56,2.15,2.72,3.75,3.5,1.59,.78,3.42,1.17,5.49,1.17s3.86-.39,5.46-1.17c1.59-.78,2.84-1.95,3.75-3.5,.91-1.56,1.36-3.49,1.36-5.78v-26.78Z"/>
    <path class="cls-2" d="M148.83,690.15h12.85c2.73,0,5.1,.44,7.11,1.33s3.56,2.2,4.66,3.92c1.1,1.73,1.64,3.85,1.64,6.37,0,1.86-.39,3.56-1.18,5.08-.79,1.52-1.87,2.79-3.25,3.82-1.38,1.02-2.97,1.72-4.78,2.11l-1.17,.43h-13.72l-.05-2.85h11.49c2.07,0,3.78-.4,5.16-1.19,1.37-.8,2.41-1.85,3.11-3.17,.7-1.31,1.05-2.72,1.05-4.22,0-1.79-.39-3.34-1.15-4.66-.77-1.31-1.91-2.32-3.41-3.03-1.5-.71-3.34-1.06-5.51-1.06h-9.51v36.66h-3.34v-39.54Zm24.42,39.54l-10.24-17.68,3.58-.03,10.21,17.35v.35h-3.56Z"/>
    <path class="cls-2" d="M225.47,719.97c0-1.09-.18-2.05-.54-2.91s-.96-1.62-1.78-2.29c-.83-.68-1.93-1.31-3.31-1.9-1.39-.59-3.11-1.17-5.18-1.75-1.97-.56-3.76-1.18-5.35-1.85-1.59-.67-2.96-1.44-4.09-2.31-1.13-.87-2-1.89-2.59-3.06-.6-1.17-.9-2.53-.9-4.09s.32-2.91,.98-4.16c.65-1.25,1.57-2.33,2.76-3.23,1.18-.91,2.59-1.6,4.21-2.09,1.62-.49,3.4-.73,5.34-.73,2.77,0,5.16,.53,7.18,1.58,2.02,1.05,3.59,2.47,4.7,4.25s1.67,3.78,1.67,5.99h-3.34c0-1.72-.4-3.26-1.21-4.6-.8-1.35-1.96-2.41-3.48-3.18-1.51-.77-3.35-1.15-5.53-1.15s-4,.33-5.47,.99c-1.48,.66-2.59,1.54-3.34,2.63-.75,1.1-1.13,2.31-1.13,3.65,0,.94,.18,1.81,.54,2.59,.36,.79,.96,1.52,1.78,2.2,.82,.68,1.91,1.31,3.27,1.9,1.36,.59,3.03,1.15,5.02,1.67,2.1,.58,3.97,1.22,5.6,1.93,1.63,.71,3.01,1.52,4.13,2.43,1.12,.91,1.97,1.98,2.55,3.19,.58,1.21,.87,2.63,.87,4.24s-.34,3.06-1.02,4.33-1.63,2.36-2.85,3.25-2.66,1.57-4.32,2.04c-1.66,.47-3.46,.71-5.42,.71-1.76,0-3.51-.23-5.24-.68-1.74-.45-3.33-1.15-4.77-2.11-1.44-.95-2.59-2.18-3.45-3.68-.86-1.5-1.29-3.29-1.29-5.38h3.31c0,1.66,.33,3.07,1,4.21,.67,1.14,1.56,2.07,2.68,2.77,1.11,.71,2.34,1.22,3.69,1.53s2.7,.48,4.06,.48c2.08,0,3.89-.31,5.42-.93,1.53-.62,2.72-1.48,3.56-2.59,.84-1.11,1.26-2.41,1.26-3.9Z"/>
    <path class="cls-2" d="M252.64,692.52l-13.68,37.18h-3.48l14.94-39.54h2.41l-.19,2.36Zm10,23.22v2.88h-20.99v-2.88h20.99Zm2.44,13.96l-13.72-37.18-.19-2.36h2.42l14.97,39.54h-3.48Z"/>
    <path class="cls-2" d="M281.36,690.15v39.54h-3.34v-39.54h3.34Zm19.53,36.69v2.85h-20.5v-2.85h20.5Z"/>
    <path class="cls-2" d="M338.4,707.81v4.24c0,2.77-.35,5.27-1.07,7.51-.72,2.24-1.75,4.15-3.1,5.74s-2.96,2.82-4.85,3.67-4,1.28-6.36,1.28-4.4-.43-6.29-1.28c-1.89-.85-3.51-2.07-4.87-3.67-1.36-1.59-2.41-3.51-3.15-5.74-.74-2.24-1.11-4.74-1.11-7.51v-4.24c0-2.77,.37-5.27,1.1-7.51,.73-2.24,1.78-4.15,3.14-5.74s2.98-2.82,4.86-3.67c1.88-.85,3.97-1.28,6.27-1.28s4.47,.43,6.36,1.28c1.88,.85,3.5,2.07,4.86,3.67,1.36,1.59,2.4,3.51,3.12,5.74,.72,2.24,1.08,4.74,1.08,7.51Zm-3.31,4.24v-4.29c0-2.34-.27-4.44-.8-6.3s-1.32-3.46-2.36-4.78c-1.05-1.32-2.31-2.33-3.82-3.04-1.5-.71-3.21-1.06-5.13-1.06s-3.54,.35-5.02,1.06-2.75,1.72-3.79,3.04c-1.04,1.32-1.84,2.92-2.39,4.78-.55,1.86-.83,3.96-.83,6.3v4.29c0,2.35,.27,4.47,.83,6.34,.55,1.87,1.35,3.48,2.4,4.81,1.05,1.33,2.32,2.35,3.82,3.06,1.49,.71,3.17,1.06,5.04,1.06s3.65-.35,5.13-1.06c1.48-.71,2.74-1.72,3.78-3.06,1.03-1.33,1.81-2.93,2.35-4.81s.8-3.99,.8-6.34Z"/>
    <path class="cls-2" d="M379.91,690.15v39.54h-3.37l-22.73-33.79v33.79h-3.34v-39.54h3.34l22.78,33.79v-33.79h3.31Z"/>
    <path class="cls-2" d="M391.58,727.71c0-.63,.2-1.17,.61-1.62,.4-.44,.97-.66,1.67-.66s1.29,.22,1.71,.66c.42,.44,.62,.98,.62,1.62s-.21,1.14-.62,1.58c-.42,.43-.99,.65-1.71,.65s-1.26-.22-1.67-.65c-.41-.44-.61-.96-.61-1.58Z"/>
    <path class="cls-2" d="M423.37,690.15l11.98,21.54,12.09-21.54h3.86l-14.26,24.63v14.91h-3.34v-14.91l-14.28-24.63h3.96Z"/>
    <path class="cls-2" d="M489.11,707.81v4.24c0,2.77-.35,5.27-1.07,7.51-.72,2.24-1.75,4.15-3.1,5.74s-2.96,2.82-4.85,3.67c-1.88,.85-4,1.28-6.36,1.28s-4.4-.43-6.29-1.28-3.51-2.07-4.87-3.67c-1.36-1.59-2.41-3.51-3.15-5.74-.74-2.24-1.11-4.74-1.11-7.51v-4.24c0-2.77,.37-5.27,1.1-7.51,.73-2.24,1.78-4.15,3.14-5.74s2.98-2.82,4.86-3.67c1.88-.85,3.97-1.28,6.27-1.28s4.47,.43,6.36,1.28c1.88,.85,3.5,2.07,4.86,3.67,1.36,1.59,2.4,3.51,3.12,5.74,.72,2.24,1.08,4.74,1.08,7.51Zm-3.31,4.24v-4.29c0-2.34-.27-4.44-.8-6.3-.54-1.86-1.32-3.46-2.36-4.78-1.05-1.32-2.31-2.33-3.82-3.04-1.5-.71-3.21-1.06-5.13-1.06s-3.54,.35-5.02,1.06-2.75,1.72-3.79,3.04c-1.04,1.32-1.84,2.92-2.39,4.78-.55,1.86-.83,3.96-.83,6.3v4.29c0,2.35,.27,4.47,.83,6.34,.55,1.87,1.35,3.48,2.4,4.81,1.05,1.33,2.32,2.35,3.82,3.06,1.49,.71,3.17,1.06,5.04,1.06s3.65-.35,5.13-1.06,2.74-1.72,3.78-3.06c1.03-1.33,1.81-2.93,2.35-4.81,.54-1.87,.8-3.99,.8-6.34Z"/>
    <path class="cls-2" d="M525.06,690.15h3.34v26.78c0,2.97-.62,5.44-1.88,7.41-1.25,1.97-2.93,3.45-5.04,4.43-2.11,.98-4.44,1.47-6.99,1.47s-4.99-.49-7.09-1.47c-2.1-.98-3.76-2.45-4.99-4.43-1.22-1.97-1.83-4.44-1.83-7.41v-26.78h3.32v26.78c0,2.3,.45,4.23,1.36,5.78,.9,1.56,2.15,2.72,3.75,3.5,1.59,.78,3.42,1.17,5.49,1.17s3.86-.39,5.46-1.17c1.59-.78,2.84-1.95,3.75-3.5,.91-1.56,1.36-3.49,1.36-5.78v-26.78Z"/>
    <path class="cls-2" d="M541.31,690.15h12.85c2.73,0,5.1,.44,7.11,1.33,2.01,.89,3.56,2.2,4.66,3.92,1.1,1.73,1.64,3.85,1.64,6.37,0,1.86-.39,3.56-1.18,5.08-.79,1.52-1.87,2.79-3.25,3.82-1.38,1.02-2.97,1.72-4.78,2.11l-1.17,.43h-13.72l-.05-2.85h11.49c2.07,0,3.78-.4,5.16-1.19,1.37-.8,2.41-1.85,3.11-3.17,.7-1.31,1.05-2.72,1.05-4.22,0-1.79-.39-3.34-1.15-4.66-.77-1.31-1.91-2.32-3.41-3.03-1.5-.71-3.34-1.06-5.51-1.06h-9.51v36.66h-3.34v-39.54Zm24.42,39.54l-10.24-17.68,3.58-.03,10.21,17.35v.35h-3.56Z"/>
    <path class="cls-2" d="M622.38,690.15v2.88h-30.39v-2.88h30.39Zm-13.55,0v39.54h-3.31v-39.54h3.31Z"/>
    <path class="cls-2" d="M636.49,690.15v39.54h-3.34v-39.54h3.34Z"/>
    <path class="cls-2" d="M650.83,690.15h2.96l.35,22.27v17.27h-3.31v-39.54Zm1.03,0h3.37l14.61,34.82,14.64-34.82h3.34l-16.7,39.54h-2.55l-16.7-39.54Zm34.08,0h2.96v39.54h-3.34v-17.27l.38-22.27Z"/>
    <path class="cls-2" d="M705.93,690.15v39.54h-3.34v-39.54h3.34Zm21.1,0v2.88h-22.11v-2.88h22.11Zm-2.63,17.74v2.85h-19.48v-2.85h19.48Zm2.77,18.96v2.85h-22.24v-2.85h22.24Z"/>
    <path class="cls-2" d="M735.81,727.71c0-.63,.2-1.17,.61-1.62,.4-.44,.97-.66,1.67-.66s1.29,.22,1.71,.66c.42,.44,.62,.98,.62,1.62s-.21,1.14-.62,1.58c-.42,.43-.99,.65-1.71,.65s-1.26-.22-1.67-.65c-.41-.44-.61-.96-.61-1.58Z"/>
    <path class="cls-2" d="M767.61,690.15l11.98,21.54,12.09-21.54h3.86l-14.26,24.63v14.91h-3.34v-14.91l-14.28-24.63h3.96Z"/>
    <path class="cls-2" d="M833.35,707.81v4.24c0,2.77-.35,5.27-1.07,7.51-.72,2.24-1.75,4.15-3.1,5.74-1.35,1.59-2.96,2.82-4.85,3.67-1.88,.85-4,1.28-6.36,1.28s-4.4-.43-6.29-1.28c-1.89-.85-3.51-2.07-4.87-3.67-1.36-1.59-2.41-3.51-3.15-5.74-.74-2.24-1.11-4.74-1.11-7.51v-4.24c0-2.77,.37-5.27,1.1-7.51,.73-2.24,1.78-4.15,3.14-5.74,1.36-1.59,2.98-2.82,4.86-3.67,1.88-.85,3.97-1.28,6.27-1.28s4.47,.43,6.36,1.28,3.5,2.07,4.86,3.67c1.36,1.59,2.4,3.51,3.12,5.74,.72,2.24,1.08,4.74,1.08,7.51Zm-3.31,4.24v-4.29c0-2.34-.27-4.44-.8-6.3-.54-1.86-1.32-3.46-2.36-4.78-1.05-1.32-2.31-2.33-3.82-3.04-1.5-.71-3.21-1.06-5.13-1.06s-3.54,.35-5.02,1.06c-1.48,.71-2.75,1.72-3.79,3.04-1.04,1.32-1.84,2.92-2.39,4.78s-.83,3.96-.83,6.3v4.29c0,2.35,.27,4.47,.83,6.34s1.35,3.48,2.4,4.81c1.05,1.33,2.32,2.35,3.82,3.06,1.49,.71,3.17,1.06,5.04,1.06s3.65-.35,5.13-1.06c1.48-.71,2.74-1.72,3.78-3.06,1.03-1.33,1.81-2.93,2.35-4.81,.54-1.87,.8-3.99,.8-6.34Z"/>
    <path class="cls-2" d="M869.29,690.15h3.34v26.78c0,2.97-.62,5.44-1.88,7.41-1.25,1.97-2.93,3.45-5.04,4.43-2.11,.98-4.44,1.47-6.99,1.47s-4.99-.49-7.09-1.47c-2.1-.98-3.76-2.45-4.99-4.43-1.22-1.97-1.83-4.44-1.83-7.41v-26.78h3.32v26.78c0,2.3,.45,4.23,1.36,5.78,.9,1.56,2.15,2.72,3.75,3.5,1.59,.78,3.42,1.17,5.49,1.17s3.86-.39,5.46-1.17c1.59-.78,2.84-1.95,3.75-3.5,.91-1.56,1.36-3.49,1.36-5.78v-26.78Z"/>
    <path class="cls-2" d="M885.54,690.15h12.85c2.73,0,5.1,.44,7.11,1.33,2.01,.89,3.56,2.2,4.66,3.92,1.1,1.73,1.64,3.85,1.64,6.37,0,1.86-.39,3.56-1.18,5.08-.79,1.52-1.87,2.79-3.25,3.82-1.38,1.02-2.97,1.72-4.78,2.11l-1.17,.43h-13.72l-.05-2.85h11.49c2.07,0,3.78-.4,5.16-1.19,1.37-.8,2.41-1.85,3.11-3.17,.7-1.31,1.05-2.72,1.05-4.22,0-1.79-.39-3.34-1.15-4.66-.77-1.31-1.91-2.32-3.41-3.03-1.5-.71-3.34-1.06-5.51-1.06h-9.51v36.66h-3.34v-39.54Zm24.42,39.54l-10.24-17.68,3.58-.03,10.21,17.35v.35h-3.56Z"/>
    <path class="cls-2" d="M939.86,690.15l7.22,28.82,2.17,10.73h-2.69l-10.13-39.54h3.42Zm9.97,29.09l8.58-29.09h2.69l-2.17,8.64-9.15,30.91h-2.58l2.63-10.46Zm11.57-29.09l8.48,29.09,2.6,10.46h-2.58l-8.96-30.91-2.2-8.64h2.66Zm11.27,28.82l7.12-28.82h3.42l-10.11,39.54h-2.69l2.25-10.73Z"/>
    <path class="cls-2" d="M1005.1,692.52l-13.68,37.18h-3.48l14.94-39.54h2.41l-.19,2.36Zm10,23.22v2.88h-20.99v-2.88h20.99Zm2.44,13.96l-13.72-37.18-.19-2.36h2.42l14.97,39.54h-3.48Z"/>
    <path class="cls-2" d="M1027.52,690.15l11.98,21.54,12.09-21.54h3.86l-14.26,24.63v14.91h-3.34v-14.91l-14.28-24.63h3.96Z"/>
  </g>
  <g>
    <path class="cls-1" d="M293.23,611.92c-.34-8.81-2.9-17.61-7.25-25.3-7.92-14.03-21.18-24.52-35.82-31.26-14.63-6.74-30.63-9.97-46.62-11.95-6.11-.76-12.47-1.41-17.74-4.6-5.27-3.19-9.05-9.78-6.92-15.56,1.34-3.64,4.68-6.17,8.14-7.9,13.35-6.69,32.75-4.01,43.27,6.88,3.05,3.13,7.92,3.63,11.77,1.56l14.34-7.73c5.49-2.99,6.8-10.43,2.51-14.98-20.99-22.2-62.13-26.49-89.08-14.6-9.82,3.63-17.08,9.81-21.8,17.07-7.58,11.68-9.93,25.9-6.27,38.45,2.24,7.72,6.76,14.8,13.76,20.27,19.45,15.2,44.56,13.94,67.1,20.77,5.18,1.57,10.32,4.82,12.04,9.95,1.6,4.8-.26,10.28-3.75,13.96-3.48,3.67-8.34,5.75-13.25,6.98-49.73,12.46-58.39-44.75-90.02-66.27-7.55-5.14-16.06-9.11-24.91-11.57-15.16-4.23-31.35-4.07-45.66,2.07-.83-3.63-.81-8.47,1.1-11.91,1.5-2.71,4.2-4.61,7.09-5.75,13.25-5.22,24,2.11,36.9,.68,.38-.04,.75-.1,1.12-.18,5.33-1.16,9.04-6.2,8.44-11.74l-2.07-17.9c-.58-4.8-4.21-8.62-8.93-9.42-6.95-1.17-13.78-2.68-20.5-4.54-19.45-5.34-37.87-13.58-54.94-24.88-7.19-4.73-16.75,.62-16.56,9.22,6.3,65.93,6.72,132.38,6.72,198.56,0,7.74,8.64,12.32,14.96,7.92,7.76-5.35,15.57-9.81,23.36-13.54,1.15-.56,2.31-1.09,3.46-1.61,.98-.45,2.43-1.05,4.15-1.74,7.87-3.14,21.64-8.1,24.92-8.4,3.7-.98,7.34-1.78,10.9-2.43,4.22-.8,7.38-4.25,7.78-8.54l1.53-16.06c.47-5.34-3.45-10-8.76-10.47-6.94-.62-16.96-.58-27.94,2.58-1.19,.34-2.38,.46-3.52,.37-4.89-.37-8.97-4.37-8.94-9.63,0-.15,.04-.22,.04-.22,0-.62,0-1.2,.04-1.82,1.28-20.85,18.15-27.26,34.55-24.12,14.85,2.85,19.94,10.37,26.52,22.76,5.65,10.64,13.09,20.26,21.7,28.66,17.45,17,39.63,29.04,63.09,35.39,15.76,4.27,32.54,6.2,48.43,2.43,15.89-3.78,30.8-13.91,37.57-28.77,3.02-6.62,4.26-13.88,3.99-21.14Zm-165.24-34.77c-.82,.69-1.83,1.02-2.82,1.02-1.27,0-2.52-.54-3.39-1.58-2.47-2.95-4.85-5.48-7.3-7.71-14.31-13.06-35.52-15.84-51.59-6.76-2.12,1.2-4.81,.45-6.01-1.67-1.2-2.12-.45-4.81,1.67-6.01,9.72-5.49,20.89-7.55,32.3-5.97,10.92,1.52,21.43,6.45,29.58,13.89,2.75,2.5,5.41,5.31,8.13,8.58,1.56,1.87,1.31,4.65-.56,6.21Z"/>
    <g>
      <path class="cls-1" d="M474.18,619c-2.27-.04-6.1-.48-9.13-3.14-3.91-3.43-4.55-8.66-4.55-11.93,0-5.02-1.16-24.7-1.16-29.73,0-28.56,1.16-56.74-19.31-76.43-22-22-72.57-24.71-100.75-6.56-10.43,6.56-19.31,14.28-25.87,23.17l25.87,25.86c10.42-16.98,24.7-24.7,41.3-24.7,15.44-1.16,29.73,6.56,33.59,22-34.74,8.89-78.76,13.13-98.44,47.87-8.88,16.98-6.56,38.99,6.56,52.88,10.42,11.59,27.02,15.45,42.85,15.45,24.71,0,47.87-5.02,63.31-27.02,7.72,18.15,24.71,27.02,45.16,27.02,2.71,0,6.57-1.16,8.89-1.16v-33.59h-8.33Zm-100.15,4.63c-11.59,0-20.85-5.02-20.85-18.15s10.42-18.14,23.17-20.84l37.44-10.43c.39,0,1.54,10.43,1.54,10.43,1.16,24.7-19.31,38.99-41.3,38.99Z"/>
      <path class="cls-1" d="M660.59,619c-2.28-.04-6.11-.48-9.14-3.14-3.91-3.43-4.55-8.66-4.55-11.93,0-5.02-1.16-24.7-1.16-29.73,0-28.56,1.16-56.74-19.3-76.43-22.01-22-72.57-24.71-100.76-6.56-10.42,6.56-19.31,14.28-25.87,23.17l25.87,25.86c10.42-16.98,24.71-24.7,41.3-24.7,15.44-1.16,29.73,6.56,33.59,22-34.74,8.89-78.75,13.13-98.44,47.87-8.88,16.98-6.56,38.99,6.56,52.88,10.43,11.59,27.02,15.45,42.86,15.45,24.7,0,47.87-5.02,63.3-27.02,7.73,18.15,24.71,27.02,45.17,27.02,2.7,0,6.56-1.16,8.88-1.16v-33.59h-8.32Zm-100.16,4.63c-11.58,0-20.85-5.02-20.85-18.15s10.43-18.14,23.17-20.84l37.44-10.43c.39,0,1.54,10.43,1.54,10.43,1.16,24.7-19.31,38.99-41.3,38.99Z"/>
      <path class="cls-1" d="M727.46,433.59v220.16h-44.01v-239.34h.04c16.91,1.93,32.7,7.91,42.66,17.87,.46,.42,.89,.89,1.31,1.31Z"/>
      <path class="cls-1" d="M1071.3,653.75h-18.07c-6.89-18.06-6.22-38.62-5.57-58.55,.26-7.92,.53-16.11,.33-24.09-.04-1.57-1.32-2.82-2.89-2.82h-.07c-1.6,.04-2.87,1.37-2.83,2.96,.19,7.82-.07,15.92-.33,23.75-.65,19.78-1.32,40.17,5.18,58.74h-18.22c-11.59-27.02-5.02-58.29-5.02-88.01,0-7.73,0-16.99-3.86-24.71-5.03-10.42-16.99-18.15-28.57-18.15s-23.17,6.57-28.57,16.99c-5.02,8.88-5.02,19.3-5.02,29.73v84.15h-44.02v-178.27h.04c10.12,1.16,19.85,3.78,28.14,7.8,5.6,2.74,10.55,6.1,14.52,10.07,.46,.43,.89,.9,1.31,1.32v10.46c14.28-20.85,45.16-27.02,69.87-16.99,24.7,10.04,32.43,27.02,33.59,29.73,2.7,5.02,3.86,11.59,5.02,16.99,6.56,40.15-6.56,80.29,5.02,118.9Z"/>
      <path class="cls-1" d="M894.1,530.23c-3.55-10.49-8.71-19.61-15.5-27.38-6.77-7.77-15.04-13.82-24.8-18.15-9.75-4.32-20.83-6.49-33.25-6.49s-23.34,2.17-33.08,6.49c-9.75,4.33-17.99,10.38-24.72,18.15-6.73,7.78-11.87,16.89-15.41,27.38-3.55,10.48-5.33,21.82-5.33,34.02v3.6c0,12.21,1.78,23.52,5.33,33.95,3.54,10.43,8.7,19.54,15.49,27.3,6.78,7.77,15.04,13.82,24.8,18.15,9.75,4.32,20.83,6.49,33.25,6.49s23.31-2.17,33.01-6.49c9.7-4.33,17.95-10.38,24.72-18.15,6.78-7.77,11.94-16.87,15.5-27.3,3.54-10.43,5.32-21.75,5.32-33.95v-3.6c0-12.2-1.78-23.54-5.32-34.02Zm-32.39,37.62c0,7.62-.81,14.81-2.42,21.59-1.62,6.78-4.1,12.73-7.44,17.84-3.34,5.1-7.58,9.13-12.75,12.04-5.16,2.92-11.24,4.38-18.23,4.38s-13.4-1.46-18.62-4.38c-5.21-2.91-9.49-6.94-12.82-12.04-3.34-5.11-5.79-11.06-7.36-17.84-1.56-6.78-2.34-13.97-2.34-21.59v-3.6c0-7.51,.78-14.63,2.34-21.35,1.57-6.72,4.02-12.7,7.36-17.91,3.33-5.22,7.58-9.32,12.75-12.28,5.16-2.98,11.29-4.47,18.38-4.47s13.23,1.49,18.39,4.47c5.16,2.96,9.44,7.06,12.82,12.28,3.4,5.21,5.9,11.18,7.52,17.91,1.61,6.72,2.42,13.85,2.42,21.35v3.6Z"/>
    </g>
  </g>
</svg>