<?xml version="1.0" encoding="UTF-8"?>
<svg id="E-saalon_FullColor" xmlns="http://www.w3.org/2000/svg" viewBox="0 0 500 200">
  <defs>
    <style>
      .cls-1 {
        fill: #4a2f99;
      }
    </style>
  </defs>
  <g>
    <path class="cls-1" d="M13.59,154.59l5.55,9.98,5.6-9.98h1.79l-6.61,11.41v6.91h-1.55v-6.91l-6.62-11.41h1.84Z"/>
    <path class="cls-1" d="M44.04,162.77v1.96c0,1.28-.16,2.44-.5,3.48-.33,1.04-.81,1.92-1.44,2.66s-1.37,1.3-2.25,1.7-1.85,.59-2.94,.59-2.04-.2-2.91-.59-1.63-.96-2.26-1.7c-.63-.74-1.12-1.62-1.46-2.66-.34-1.04-.52-2.2-.52-3.48v-1.96c0-1.28,.17-2.44,.51-3.48s.82-1.92,1.45-2.66,1.38-1.3,2.25-1.7c.87-.39,1.84-.59,2.91-.59s2.07,.2,2.94,.59,1.62,.96,2.25,1.7c.63,.74,1.11,1.63,1.45,2.66,.33,1.04,.5,2.2,.5,3.48Zm-1.53,1.96v-1.99c0-1.08-.12-2.06-.37-2.92s-.61-1.6-1.09-2.22c-.48-.61-1.07-1.08-1.77-1.41-.7-.33-1.49-.49-2.38-.49s-1.64,.16-2.33,.49-1.27,.8-1.76,1.41c-.48,.61-.85,1.35-1.11,2.22s-.38,1.84-.38,2.92v1.99c0,1.09,.13,2.07,.38,2.94s.63,1.61,1.11,2.23c.49,.62,1.08,1.09,1.77,1.42,.69,.33,1.47,.49,2.33,.49s1.69-.16,2.38-.49,1.27-.8,1.75-1.42c.48-.62,.84-1.36,1.09-2.23s.37-1.85,.37-2.94Z"/>
    <path class="cls-1" d="M60.69,154.59h1.55v12.41c0,1.38-.29,2.52-.87,3.43-.58,.91-1.36,1.6-2.33,2.05-.98,.45-2.06,.68-3.24,.68s-2.31-.23-3.28-.68c-.97-.45-1.74-1.14-2.31-2.05-.57-.91-.85-2.06-.85-3.43v-12.41h1.54v12.41c0,1.07,.21,1.96,.63,2.68,.42,.72,1,1.26,1.74,1.62,.74,.36,1.59,.54,2.54,.54s1.79-.18,2.53-.54c.74-.36,1.32-.9,1.74-1.62s.63-1.61,.63-2.68v-12.41Z"/>
    <path class="cls-1" d="M68.22,154.59h5.95c1.27,0,2.36,.21,3.3,.62s1.65,1.02,2.16,1.82c.51,.8,.76,1.78,.76,2.95,0,.86-.18,1.65-.55,2.35-.37,.7-.87,1.29-1.5,1.77-.64,.47-1.38,.8-2.21,.98l-.54,.2h-6.36l-.03-1.32h5.32c.96,0,1.75-.18,2.39-.55,.64-.37,1.12-.86,1.44-1.47,.32-.61,.49-1.26,.49-1.96,0-.83-.18-1.55-.54-2.16-.36-.61-.88-1.08-1.58-1.4-.7-.33-1.55-.49-2.55-.49h-4.41v16.99h-1.55v-18.32Zm11.31,18.32l-4.74-8.19h1.66s4.73,8.03,4.73,8.03v.16h-1.65Z"/>
    <path class="cls-1" d="M103.73,168.41c0-.5-.08-.95-.25-1.35s-.44-.75-.82-1.06c-.38-.31-.89-.61-1.53-.88-.64-.27-1.44-.54-2.4-.81-.91-.26-1.74-.55-2.48-.86s-1.37-.67-1.89-1.07c-.53-.4-.93-.87-1.2-1.42-.28-.54-.42-1.17-.42-1.89s.15-1.35,.45-1.93c.3-.58,.73-1.08,1.28-1.5,.55-.42,1.2-.74,1.95-.97,.75-.23,1.57-.34,2.47-.34,1.28,0,2.39,.24,3.33,.73s1.66,1.14,2.18,1.97,.78,1.75,.78,2.77h-1.55c0-.8-.19-1.51-.56-2.13s-.91-1.11-1.61-1.47c-.7-.36-1.55-.53-2.56-.53s-1.85,.15-2.53,.46c-.69,.31-1.2,.71-1.55,1.22s-.52,1.07-.52,1.69c0,.44,.08,.84,.25,1.2,.17,.37,.44,.7,.83,1.02,.38,.31,.89,.61,1.52,.88,.63,.27,1.41,.53,2.33,.77,.97,.27,1.84,.57,2.59,.89,.75,.33,1.39,.7,1.91,1.13,.52,.42,.91,.92,1.18,1.48,.27,.56,.4,1.22,.4,1.96s-.16,1.42-.47,2.01-.75,1.09-1.32,1.5-1.23,.73-2,.94c-.77,.22-1.6,.33-2.51,.33-.81,0-1.62-.11-2.43-.31-.81-.21-1.54-.54-2.21-.98s-1.2-1.01-1.6-1.71c-.4-.7-.6-1.53-.6-2.49h1.53c0,.77,.15,1.42,.46,1.95,.31,.53,.72,.96,1.24,1.28s1.09,.56,1.71,.71,1.25,.22,1.88,.22c.96,0,1.8-.14,2.51-.43,.71-.29,1.26-.69,1.65-1.2,.39-.52,.59-1.12,.59-1.81Z"/>
    <path class="cls-1" d="M116.32,155.68l-6.34,17.23h-1.61l6.92-18.32h1.12l-.09,1.09Zm4.63,10.76v1.33h-9.73v-1.33h9.73Zm1.13,6.47l-6.36-17.23-.09-1.09h1.12l6.93,18.32h-1.61Z"/>
    <path class="cls-1" d="M129.62,154.59v18.32h-1.55v-18.32h1.55Zm9.05,17v1.32h-9.5v-1.32h9.5Z"/>
    <path class="cls-1" d="M156.05,162.77v1.96c0,1.28-.16,2.44-.5,3.48-.33,1.04-.81,1.92-1.44,2.66s-1.37,1.3-2.25,1.7-1.85,.59-2.94,.59-2.04-.2-2.91-.59-1.63-.96-2.26-1.7c-.63-.74-1.12-1.62-1.46-2.66-.34-1.04-.52-2.2-.52-3.48v-1.96c0-1.28,.17-2.44,.51-3.48s.82-1.92,1.45-2.66,1.38-1.3,2.25-1.7c.87-.39,1.84-.59,2.91-.59s2.07,.2,2.94,.59,1.62,.96,2.25,1.7c.63,.74,1.11,1.63,1.45,2.66,.33,1.04,.5,2.2,.5,3.48Zm-1.53,1.96v-1.99c0-1.08-.12-2.06-.37-2.92s-.61-1.6-1.09-2.22c-.48-.61-1.07-1.08-1.77-1.41-.7-.33-1.49-.49-2.38-.49s-1.64,.16-2.33,.49-1.27,.8-1.76,1.41c-.48,.61-.85,1.35-1.11,2.22s-.38,1.84-.38,2.92v1.99c0,1.09,.13,2.07,.38,2.94s.63,1.61,1.11,2.23c.49,.62,1.08,1.09,1.77,1.42,.69,.33,1.47,.49,2.33,.49s1.69-.16,2.38-.49,1.27-.8,1.75-1.42c.48-.62,.84-1.36,1.09-2.23s.37-1.85,.37-2.94Z"/>
    <path class="cls-1" d="M175.28,154.59v18.32h-1.56l-10.53-15.65v15.65h-1.55v-18.32h1.55l10.56,15.65v-15.65h1.53Z"/>
    <path class="cls-1" d="M180.69,171.99c0-.29,.09-.54,.28-.75,.19-.21,.45-.31,.77-.31s.6,.1,.79,.31c.19,.21,.29,.46,.29,.75s-.1,.53-.29,.73c-.19,.2-.46,.3-.79,.3s-.59-.1-.77-.3c-.19-.2-.28-.45-.28-.73Z"/>
    <path class="cls-1" d="M195.42,154.59l5.55,9.98,5.6-9.98h1.79l-6.61,11.41v6.91h-1.55v-6.91l-6.62-11.41h1.84Z"/>
    <path class="cls-1" d="M225.87,162.77v1.96c0,1.28-.16,2.44-.5,3.48-.33,1.04-.81,1.92-1.44,2.66s-1.37,1.3-2.25,1.7-1.85,.59-2.94,.59-2.04-.2-2.91-.59-1.63-.96-2.26-1.7c-.63-.74-1.12-1.62-1.46-2.66-.34-1.04-.52-2.2-.52-3.48v-1.96c0-1.28,.17-2.44,.51-3.48s.82-1.92,1.45-2.66,1.38-1.3,2.25-1.7c.87-.39,1.84-.59,2.91-.59s2.07,.2,2.94,.59,1.62,.96,2.25,1.7c.63,.74,1.11,1.63,1.45,2.66,.33,1.04,.5,2.2,.5,3.48Zm-1.53,1.96v-1.99c0-1.08-.12-2.06-.37-2.92s-.61-1.6-1.09-2.22c-.48-.61-1.07-1.08-1.77-1.41-.7-.33-1.49-.49-2.38-.49s-1.64,.16-2.33,.49-1.27,.8-1.76,1.41c-.48,.61-.85,1.35-1.11,2.22s-.38,1.84-.38,2.92v1.99c0,1.09,.13,2.07,.38,2.94s.63,1.61,1.11,2.23c.49,.62,1.08,1.09,1.77,1.42,.69,.33,1.47,.49,2.33,.49s1.69-.16,2.38-.49,1.27-.8,1.75-1.42c.48-.62,.84-1.36,1.09-2.23s.37-1.85,.37-2.94Z"/>
    <path class="cls-1" d="M242.53,154.59h1.55v12.41c0,1.38-.29,2.52-.87,3.43-.58,.91-1.36,1.6-2.33,2.05-.98,.45-2.06,.68-3.24,.68s-2.31-.23-3.28-.68c-.97-.45-1.74-1.14-2.31-2.05-.57-.91-.85-2.06-.85-3.43v-12.41h1.54v12.41c0,1.07,.21,1.96,.63,2.68,.42,.72,1,1.26,1.74,1.62,.74,.36,1.59,.54,2.54,.54s1.79-.18,2.53-.54c.74-.36,1.32-.9,1.74-1.62,.42-.72,.63-1.61,.63-2.68v-12.41Z"/>
    <path class="cls-1" d="M250.06,154.59h5.95c1.27,0,2.36,.21,3.3,.62s1.65,1.02,2.16,1.82c.51,.8,.76,1.78,.76,2.95,0,.86-.18,1.65-.55,2.35-.37,.7-.87,1.29-1.5,1.77-.64,.47-1.38,.8-2.21,.98l-.54,.2h-6.36l-.03-1.32h5.32c.96,0,1.75-.18,2.39-.55,.64-.37,1.12-.86,1.44-1.47,.32-.61,.49-1.26,.49-1.96,0-.83-.18-1.55-.54-2.16-.36-.61-.88-1.08-1.58-1.4-.7-.33-1.55-.49-2.55-.49h-4.41v16.99h-1.55v-18.32Zm11.31,18.32l-4.74-8.19h1.66s4.73,8.03,4.73,8.03v.16h-1.65Z"/>
    <path class="cls-1" d="M287.61,154.59v1.33h-14.08v-1.33h14.08Zm-6.28,0v18.32h-1.53v-18.32h1.53Z"/>
    <path class="cls-1" d="M294.15,154.59v18.32h-1.55v-18.32h1.55Z"/>
    <path class="cls-1" d="M300.8,154.59h1.37l.16,10.32v8h-1.53v-18.32Zm.48,0h1.56l6.77,16.13,6.78-16.13h1.55l-7.74,18.32h-1.18l-7.74-18.32Zm15.79,0h1.37v18.32h-1.55v-8l.18-10.32Z"/>
    <path class="cls-1" d="M326.32,154.59v18.32h-1.55v-18.32h1.55Zm9.78,0v1.33h-10.24v-1.33h10.24Zm-1.22,8.22v1.32h-9.02v-1.32h9.02Zm1.28,8.78v1.32h-10.31v-1.32h10.31Z"/>
    <path class="cls-1" d="M340.17,171.99c0-.29,.09-.54,.28-.75,.19-.21,.45-.31,.77-.31s.6,.1,.79,.31c.19,.21,.29,.46,.29,.75s-.1,.53-.29,.73c-.19,.2-.46,.3-.79,.3s-.59-.1-.77-.3c-.19-.2-.28-.45-.28-.73Z"/>
    <path class="cls-1" d="M354.9,154.59l5.55,9.98,5.6-9.98h1.79l-6.61,11.41v6.91h-1.55v-6.91l-6.62-11.41h1.84Z"/>
    <path class="cls-1" d="M385.35,162.77v1.96c0,1.28-.16,2.44-.5,3.48-.33,1.04-.81,1.92-1.44,2.66-.62,.74-1.37,1.3-2.25,1.7s-1.85,.59-2.94,.59-2.04-.2-2.91-.59c-.88-.39-1.63-.96-2.26-1.7-.63-.74-1.12-1.62-1.46-2.66-.34-1.04-.52-2.2-.52-3.48v-1.96c0-1.28,.17-2.44,.51-3.48s.82-1.92,1.45-2.66,1.38-1.3,2.25-1.7c.87-.39,1.84-.59,2.91-.59s2.07,.2,2.94,.59,1.62,.96,2.25,1.7c.63,.74,1.11,1.63,1.45,2.66,.33,1.04,.5,2.2,.5,3.48Zm-1.53,1.96v-1.99c0-1.08-.12-2.06-.37-2.92-.25-.86-.61-1.6-1.09-2.22-.48-.61-1.07-1.08-1.77-1.41-.7-.33-1.49-.49-2.38-.49s-1.64,.16-2.33,.49c-.69,.33-1.27,.8-1.76,1.41-.48,.61-.85,1.35-1.11,2.22s-.38,1.84-.38,2.92v1.99c0,1.09,.13,2.07,.38,2.94s.63,1.61,1.11,2.23c.49,.62,1.08,1.09,1.77,1.42,.69,.33,1.47,.49,2.33,.49s1.69-.16,2.38-.49,1.27-.8,1.75-1.42c.48-.62,.84-1.36,1.09-2.23,.25-.87,.37-1.85,.37-2.94Z"/>
    <path class="cls-1" d="M402.01,154.59h1.55v12.41c0,1.38-.29,2.52-.87,3.43-.58,.91-1.36,1.6-2.33,2.05-.98,.45-2.06,.68-3.24,.68s-2.31-.23-3.28-.68c-.97-.45-1.74-1.14-2.31-2.05-.57-.91-.85-2.06-.85-3.43v-12.41h1.54v12.41c0,1.07,.21,1.96,.63,2.68,.42,.72,1,1.26,1.74,1.62,.74,.36,1.59,.54,2.54,.54s1.79-.18,2.53-.54c.74-.36,1.32-.9,1.74-1.62,.42-.72,.63-1.61,.63-2.68v-12.41Z"/>
    <path class="cls-1" d="M409.54,154.59h5.95c1.27,0,2.36,.21,3.3,.62s1.65,1.02,2.16,1.82c.51,.8,.76,1.78,.76,2.95,0,.86-.18,1.65-.55,2.35-.37,.7-.87,1.29-1.5,1.77-.64,.47-1.38,.8-2.21,.98l-.54,.2h-6.36l-.03-1.32h5.32c.96,0,1.75-.18,2.39-.55,.64-.37,1.12-.86,1.44-1.47,.32-.61,.49-1.26,.49-1.96,0-.83-.18-1.55-.54-2.16-.36-.61-.88-1.08-1.58-1.4-.7-.33-1.55-.49-2.55-.49h-4.41v16.99h-1.55v-18.32Zm11.31,18.32l-4.74-8.19h1.66s4.73,8.03,4.73,8.03v.16h-1.65Z"/>
    <path class="cls-1" d="M434.7,154.59l3.35,13.35,1.01,4.97h-1.25l-4.69-18.32h1.59Zm4.62,13.48l3.98-13.48h1.25l-1.01,4-4.24,14.32h-1.19l1.22-4.84Zm5.36-13.48l3.93,13.48,1.21,4.84h-1.19l-4.15-14.32-1.02-4h1.23Zm5.22,13.35l3.3-13.35h1.59l-4.68,18.32h-1.25l1.04-4.97Z"/>
    <path class="cls-1" d="M464.93,155.68l-6.34,17.23h-1.61l6.92-18.32h1.12l-.09,1.09Zm4.63,10.76v1.33h-9.73v-1.33h9.73Zm1.13,6.47l-6.36-17.23-.09-1.09h1.12l6.93,18.32h-1.61Z"/>
    <path class="cls-1" d="M475.31,154.59l5.55,9.98,5.6-9.98h1.79l-6.61,11.41v6.91h-1.55v-6.91l-6.62-11.41h1.84Z"/>
  </g>
  <g>
    <path class="cls-1" d="M135.12,118.35c-.16-4.08-1.34-8.16-3.36-11.72-3.67-6.5-9.81-11.36-16.59-14.48-6.78-3.12-14.19-4.62-21.6-5.53-2.83-.35-5.78-.65-8.22-2.13-2.44-1.48-4.19-4.53-3.21-7.21,.62-1.69,2.17-2.86,3.77-3.66,6.19-3.1,15.18-1.86,20.05,3.19,1.41,1.45,3.67,1.68,5.45,.72l6.65-3.58c2.54-1.39,3.15-4.83,1.16-6.94-9.73-10.29-28.79-12.27-41.27-6.76-4.55,1.68-7.91,4.54-10.1,7.91-3.51,5.41-4.6,12-2.91,17.81,1.04,3.58,3.13,6.86,6.37,9.39,9.01,7.04,20.64,6.46,31.09,9.62,2.4,.73,4.78,2.23,5.58,4.61,.74,2.22-.12,4.76-1.74,6.47-1.61,1.7-3.87,2.67-6.14,3.24-23.04,5.77-27.05-20.73-41.71-30.7-3.5-2.38-7.44-4.22-11.54-5.36-7.02-1.96-14.53-1.89-21.15,.96-.39-1.68-.37-3.92,.51-5.52,.69-1.26,1.94-2.14,3.28-2.66,6.14-2.42,11.12,.98,17.1,.31,.18-.02,.35-.04,.52-.08,2.47-.54,4.19-2.87,3.91-5.44l-.96-8.29c-.27-2.22-1.95-3.99-4.14-4.36-3.22-.54-6.39-1.24-9.5-2.1-9.01-2.48-17.54-6.29-25.45-11.53-3.33-2.19-7.76,.29-7.67,4.27,2.92,30.54,3.11,61.33,3.11,91.99,0,3.59,4,5.71,6.93,3.67,3.59-2.48,7.21-4.54,10.82-6.27,.53-.26,1.07-.51,1.6-.75,.46-.21,1.12-.48,1.92-.81,3.64-1.45,10.03-3.75,11.54-3.89,1.72-.45,3.4-.83,5.05-1.13,1.96-.37,3.42-1.97,3.61-3.96l.71-7.44c.22-2.48-1.6-4.63-4.06-4.85-3.22-.29-7.86-.27-12.94,1.2-.55,.16-1.1,.21-1.63,.17-2.26-.17-4.16-2.02-4.14-4.46,0-.07,.02-.1,.02-.1,0-.29,0-.56,.02-.84,.59-9.66,8.41-12.63,16.01-11.17,6.88,1.32,9.24,4.81,12.29,10.55,2.62,4.93,6.07,9.39,10.06,13.28,8.08,7.88,18.36,13.45,29.23,16.4,7.3,1.98,15.08,2.87,22.44,1.12,7.36-1.75,14.27-6.45,17.4-13.33,1.4-3.07,1.98-6.43,1.85-9.79Zm-76.55-16.11c-.38,.32-.85,.47-1.31,.47-.59,0-1.17-.25-1.57-.73-1.14-1.37-2.25-2.54-3.38-3.57-6.63-6.05-16.46-7.34-23.9-3.13-.98,.55-2.23,.21-2.78-.77-.56-.98-.21-2.23,.77-2.78,4.5-2.54,9.68-3.5,14.96-2.76,5.06,.7,9.93,2.99,13.7,6.44,1.27,1.16,2.5,2.46,3.77,3.97,.72,.87,.61,2.16-.26,2.88Z"/>
    <g>
      <path class="cls-1" d="M218.96,121.63c-1.05-.02-2.83-.22-4.23-1.45-1.81-1.59-2.11-4.01-2.11-5.52,0-2.32-.54-11.44-.54-13.77,0-13.23,.54-26.29-8.94-35.41-10.19-10.19-33.62-11.45-46.68-3.04-4.83,3.04-8.94,6.62-11.98,10.73l11.98,11.98c4.83-7.87,11.44-11.44,19.14-11.44,7.15-.54,13.77,3.04,15.56,10.19-16.1,4.12-36.49,6.08-45.61,22.18-4.11,7.87-3.04,18.06,3.04,24.5,4.83,5.37,12.52,7.16,19.85,7.16,11.45,0,22.18-2.32,29.33-12.52,3.58,8.41,11.45,12.52,20.92,12.52,1.26,0,3.04-.54,4.12-.54v-15.56h-3.86Zm-46.4,2.15c-5.37,0-9.66-2.32-9.66-8.41s4.83-8.4,10.73-9.66l17.35-4.83c.18,0,.72,4.83,.72,4.83,.54,11.44-8.94,18.06-19.14,18.06Z"/>
      <path class="cls-1" d="M305.32,121.63c-1.05-.02-2.83-.22-4.23-1.45-1.81-1.59-2.11-4.01-2.11-5.52,0-2.32-.54-11.44-.54-13.77,0-13.23,.54-26.29-8.94-35.41-10.2-10.19-33.62-11.45-46.68-3.04-4.83,3.04-8.94,6.62-11.98,10.73l11.98,11.98c4.83-7.87,11.45-11.44,19.14-11.44,7.15-.54,13.77,3.04,15.56,10.19-16.1,4.12-36.48,6.08-45.61,22.18-4.11,7.87-3.04,18.06,3.04,24.5,4.83,5.37,12.52,7.16,19.86,7.16,11.44,0,22.18-2.32,29.33-12.52,3.58,8.41,11.45,12.52,20.93,12.52,1.25,0,3.04-.54,4.11-.54v-15.56h-3.85Zm-46.4,2.15c-5.36,0-9.66-2.32-9.66-8.41s4.83-8.4,10.73-9.66l17.35-4.83c.18,0,.72,4.83,.72,4.83,.54,11.44-8.94,18.06-19.14,18.06Z"/>
      <path class="cls-1" d="M336.3,35.73v102h-20.39V26.84h.02c7.83,.89,15.15,3.67,19.76,8.28,.21,.2,.41,.41,.61,.61Z"/>
      <path class="cls-1" d="M495.6,137.72h-8.37c-3.19-8.37-2.88-17.89-2.58-27.12,.12-3.67,.25-7.46,.15-11.16-.02-.73-.61-1.31-1.34-1.31h-.03c-.74,.02-1.33,.63-1.31,1.37,.09,3.62-.03,7.38-.15,11.01-.3,9.16-.61,18.61,2.4,27.21h-8.44c-5.37-12.52-2.32-27.01-2.32-40.78,0-3.58,0-7.87-1.79-11.45-2.33-4.83-7.87-8.41-13.24-8.41s-10.73,3.04-13.24,7.87c-2.32,4.11-2.32,8.94-2.32,13.77v38.99h-20.39V55.13h.02c4.69,.54,9.19,1.75,13.04,3.61,2.59,1.27,4.89,2.82,6.73,4.67,.21,.2,.41,.42,.61,.61v4.85c6.62-9.66,20.92-12.52,32.37-7.87,11.44,4.65,15.02,12.52,15.56,13.77,1.25,2.32,1.79,5.37,2.32,7.87,3.04,18.6-3.04,37.2,2.32,55.08Z"/>
      <path class="cls-1" d="M413.5,80.5c-1.64-4.86-4.04-9.08-7.18-12.69-3.14-3.6-6.97-6.4-11.49-8.41-4.52-2-9.65-3.01-15.4-3.01s-10.81,1.01-15.33,3.01c-4.52,2.01-8.34,4.81-11.45,8.41-3.12,3.6-5.5,7.83-7.14,12.69-1.64,4.85-2.47,10.11-2.47,15.76v1.67c0,5.65,.82,10.9,2.47,15.73,1.64,4.83,4.03,9.05,7.17,12.65,3.14,3.6,6.97,6.4,11.49,8.41,4.52,2,9.65,3.01,15.4,3.01s10.8-1.01,15.29-3.01c4.49-2.01,8.31-4.81,11.45-8.41,3.14-3.6,5.53-7.82,7.18-12.65,1.64-4.83,2.46-10.08,2.46-15.73v-1.67c0-5.65-.82-10.91-2.46-15.76Zm-15.01,17.43c0,3.53-.38,6.86-1.12,10-.75,3.14-1.9,5.9-3.45,8.26-1.55,2.36-3.51,4.23-5.9,5.58-2.39,1.35-5.21,2.03-8.44,2.03s-6.21-.67-8.63-2.03c-2.41-1.35-4.4-3.21-5.94-5.58-1.55-2.37-2.68-5.12-3.41-8.26-.72-3.14-1.09-6.47-1.09-10v-1.67c0-3.48,.36-6.78,1.09-9.89,.73-3.12,1.86-5.88,3.41-8.3,1.54-2.42,3.51-4.32,5.9-5.69,2.39-1.38,5.23-2.07,8.52-2.07s6.13,.69,8.52,2.07c2.39,1.37,4.37,3.27,5.94,5.69,1.57,2.41,2.73,5.18,3.48,8.3,.75,3.12,1.12,6.41,1.12,9.89v1.67Z"/>
    </g>
  </g>
</svg>