<?xml version="1.0" encoding="UTF-8"?>
<svg id="E-saalon_FullColor-intagram" xmlns="http://www.w3.org/2000/svg" viewBox="0 0 1080 1101.98">
  <defs>
    <style>
      .cls-1 {
        fill: #4a2f99;
      }
    </style>
  </defs>
  <g>
    <path class="cls-1" d="M37.75,667.24l11.82,21.25,11.92-21.25h3.8l-14.07,24.3v14.71h-3.3v-14.71l-14.09-24.3h3.91Z"/>
    <path class="cls-1" d="M102.6,684.65v4.18c0,2.73-.35,5.2-1.06,7.41-.71,2.21-1.73,4.1-3.06,5.67-1.33,1.57-2.92,2.78-4.78,3.62-1.86,.84-3.95,1.26-6.27,1.26s-4.34-.42-6.2-1.26c-1.87-.84-3.47-2.05-4.81-3.62-1.34-1.57-2.38-3.46-3.11-5.67-.73-2.21-1.1-4.68-1.1-7.41v-4.18c0-2.73,.36-5.2,1.09-7.41,.72-2.21,1.75-4.1,3.09-5.67,1.34-1.57,2.94-2.78,4.8-3.62,1.85-.84,3.92-1.26,6.19-1.26s4.41,.42,6.27,1.26c1.86,.84,3.46,2.05,4.8,3.62,1.34,1.57,2.37,3.46,3.08,5.67,.71,2.21,1.07,4.68,1.07,7.41Zm-3.27,4.18v-4.23c0-2.31-.26-4.38-.79-6.22s-1.3-3.41-2.33-4.72c-1.03-1.3-2.28-2.3-3.77-3-1.48-.7-3.17-1.05-5.06-1.05s-3.49,.35-4.96,1.05-2.71,1.7-3.74,3c-1.03,1.31-1.81,2.88-2.36,4.72s-.81,3.91-.81,6.22v4.23c0,2.32,.27,4.41,.81,6.26,.54,1.85,1.33,3.43,2.37,4.74,1.04,1.31,2.29,2.32,3.77,3.01,1.47,.7,3.13,1.05,4.97,1.05s3.6-.35,5.06-1.05,2.71-1.7,3.73-3.01c1.02-1.31,1.79-2.89,2.32-4.74,.53-1.85,.79-3.93,.79-6.26Z"/>
    <path class="cls-1" d="M138.06,667.24h3.3v26.42c0,2.93-.62,5.37-1.85,7.31-1.23,1.95-2.89,3.4-4.97,4.37-2.08,.96-4.38,1.45-6.9,1.45s-4.92-.48-6.99-1.45c-2.07-.96-3.71-2.42-4.92-4.37-1.21-1.95-1.81-4.38-1.81-7.31v-26.42h3.27v26.42c0,2.27,.44,4.17,1.34,5.71,.89,1.54,2.12,2.69,3.7,3.46,1.57,.77,3.38,1.15,5.41,1.15s3.81-.38,5.38-1.15c1.57-.77,2.8-1.92,3.7-3.46,.89-1.54,1.34-3.44,1.34-5.71v-26.42Z"/>
    <path class="cls-1" d="M154.1,667.24h12.67c2.69,0,5.04,.44,7.02,1.31,1.98,.88,3.51,2.17,4.59,3.87,1.08,1.71,1.62,3.8,1.62,6.28,0,1.84-.39,3.51-1.16,5.01-.78,1.5-1.85,2.76-3.2,3.76-1.36,1.01-2.93,1.7-4.72,2.08l-1.15,.43h-13.53l-.05-2.81h11.33c2.04,0,3.73-.39,5.09-1.18,1.36-.79,2.38-1.83,3.06-3.12,.69-1.3,1.04-2.68,1.04-4.17,0-1.77-.38-3.3-1.14-4.59-.76-1.3-1.88-2.29-3.36-2.99-1.48-.7-3.3-1.05-5.44-1.05h-9.38v36.17h-3.29v-39.01Zm24.09,39.01l-10.1-17.44,3.53-.03,10.07,17.12v.35h-3.51Z"/>
    <path class="cls-1" d="M229.7,696.66c0-1.07-.18-2.03-.54-2.87s-.94-1.59-1.75-2.26c-.81-.67-1.9-1.3-3.27-1.88-1.37-.58-3.07-1.16-5.11-1.73-1.95-.56-3.7-1.16-5.28-1.82-1.57-.66-2.92-1.42-4.03-2.28-1.12-.86-1.97-1.86-2.56-3.01-.59-1.15-.89-2.5-.89-4.03s.32-2.87,.96-4.1c.64-1.23,1.55-2.3,2.72-3.19,1.17-.89,2.55-1.58,4.15-2.06,1.6-.48,3.35-.72,5.26-.72,2.73,0,5.09,.52,7.09,1.56,1.99,1.04,3.54,2.43,4.64,4.19,1.1,1.76,1.65,3.73,1.65,5.91h-3.3c0-1.7-.4-3.21-1.19-4.54s-1.94-2.37-3.43-3.14c-1.49-.76-3.31-1.14-5.45-1.14s-3.94,.32-5.4,.98c-1.46,.65-2.56,1.52-3.3,2.6-.74,1.08-1.11,2.28-1.11,3.6,0,.93,.17,1.78,.53,2.56,.36,.78,.94,1.5,1.76,2.17,.81,.67,1.89,1.3,3.23,1.88,1.34,.58,2.99,1.13,4.96,1.65,2.07,.57,3.91,1.21,5.52,1.9,1.6,.7,2.96,1.5,4.07,2.4,1.11,.9,1.95,1.95,2.52,3.15,.57,1.2,.86,2.59,.86,4.18s-.34,3.01-1.01,4.27c-.67,1.26-1.6,2.33-2.81,3.2-1.21,.88-2.63,1.54-4.26,2.01-1.63,.46-3.41,.7-5.34,.7-1.73,0-3.46-.22-5.17-.67-1.72-.45-3.28-1.14-4.7-2.08-1.42-.94-2.55-2.15-3.4-3.63-.85-1.48-1.27-3.25-1.27-5.3h3.27c0,1.64,.33,3.03,.99,4.15,.66,1.13,1.54,2.04,2.64,2.73s2.31,1.2,3.64,1.51c1.33,.31,2.67,.47,4.01,.47,2.05,0,3.83-.3,5.34-.91,1.51-.61,2.68-1.46,3.51-2.56,.83-1.1,1.25-2.38,1.25-3.85Z"/>
    <path class="cls-1" d="M256.5,669.57l-13.5,36.68h-3.43l14.74-39.01h2.38l-.19,2.33Zm9.86,22.91v2.84h-20.71v-2.84h20.71Zm2.41,13.77l-13.53-36.68-.19-2.33h2.39l14.76,39.01h-3.43Z"/>
    <path class="cls-1" d="M284.84,667.24v39.01h-3.3v-39.01h3.3Zm19.26,36.2v2.81h-20.23v-2.81h20.23Z"/>
    <path class="cls-1" d="M341.12,684.65v4.18c0,2.73-.35,5.2-1.06,7.41-.71,2.21-1.73,4.1-3.06,5.67s-2.92,2.78-4.78,3.62c-1.86,.84-3.95,1.26-6.27,1.26s-4.34-.42-6.2-1.26c-1.87-.84-3.47-2.05-4.81-3.62-1.34-1.57-2.38-3.46-3.11-5.67-.73-2.21-1.1-4.68-1.1-7.41v-4.18c0-2.73,.36-5.2,1.09-7.41,.72-2.21,1.75-4.1,3.09-5.67s2.94-2.78,4.8-3.62c1.85-.84,3.92-1.26,6.19-1.26s4.41,.42,6.27,1.26c1.86,.84,3.46,2.05,4.8,3.62,1.34,1.57,2.37,3.46,3.08,5.67,.71,2.21,1.07,4.68,1.07,7.41Zm-3.27,4.18v-4.23c0-2.31-.26-4.38-.79-6.22-.53-1.84-1.3-3.41-2.33-4.72-1.03-1.3-2.28-2.3-3.77-3-1.48-.7-3.17-1.05-5.06-1.05s-3.49,.35-4.96,1.05-2.71,1.7-3.74,3c-1.03,1.31-1.81,2.88-2.36,4.72s-.81,3.91-.81,6.22v4.23c0,2.32,.27,4.41,.81,6.26s1.33,3.43,2.37,4.74c1.04,1.31,2.29,2.32,3.77,3.01,1.47,.7,3.13,1.05,4.97,1.05s3.6-.35,5.06-1.05,2.71-1.7,3.73-3.01c1.02-1.31,1.79-2.89,2.32-4.74s.79-3.93,.79-6.26Z"/>
    <path class="cls-1" d="M382.07,667.24v39.01h-3.32l-22.42-33.33v33.33h-3.3v-39.01h3.3l22.48,33.33v-33.33h3.27Z"/>
    <path class="cls-1" d="M393.58,704.29c0-.62,.2-1.16,.6-1.59,.4-.44,.95-.65,1.65-.65s1.28,.22,1.69,.65c.41,.44,.62,.97,.62,1.59s-.2,1.12-.62,1.56c-.41,.43-.97,.64-1.69,.64s-1.25-.21-1.65-.64c-.4-.43-.6-.95-.6-1.56Z"/>
    <path class="cls-1" d="M424.94,667.24l11.82,21.25,11.92-21.25h3.8l-14.07,24.3v14.71h-3.3v-14.71l-14.09-24.3h3.91Z"/>
    <path class="cls-1" d="M489.8,684.65v4.18c0,2.73-.35,5.2-1.06,7.41-.71,2.21-1.73,4.1-3.06,5.67s-2.92,2.78-4.78,3.62c-1.86,.84-3.95,1.26-6.27,1.26s-4.34-.42-6.2-1.26c-1.87-.84-3.47-2.05-4.81-3.62-1.34-1.57-2.38-3.46-3.11-5.67-.73-2.21-1.1-4.68-1.1-7.41v-4.18c0-2.73,.36-5.2,1.09-7.41,.72-2.21,1.75-4.1,3.09-5.67s2.94-2.78,4.8-3.62c1.85-.84,3.92-1.26,6.19-1.26s4.41,.42,6.27,1.26c1.86,.84,3.46,2.05,4.8,3.62,1.34,1.57,2.37,3.46,3.08,5.67,.71,2.21,1.07,4.68,1.07,7.41Zm-3.27,4.18v-4.23c0-2.31-.26-4.38-.79-6.22-.53-1.84-1.3-3.41-2.33-4.72-1.03-1.3-2.28-2.3-3.77-3-1.48-.7-3.17-1.05-5.06-1.05s-3.49,.35-4.96,1.05-2.71,1.7-3.74,3c-1.03,1.31-1.81,2.88-2.36,4.72s-.81,3.91-.81,6.22v4.23c0,2.32,.27,4.41,.81,6.26s1.33,3.43,2.37,4.74c1.04,1.31,2.29,2.32,3.77,3.01,1.47,.7,3.13,1.05,4.97,1.05s3.6-.35,5.06-1.05c1.46-.7,2.71-1.7,3.73-3.01,1.02-1.31,1.79-2.89,2.32-4.74,.53-1.85,.79-3.93,.79-6.26Z"/>
    <path class="cls-1" d="M525.26,667.24h3.3v26.42c0,2.93-.62,5.37-1.85,7.31-1.23,1.95-2.89,3.4-4.97,4.37-2.08,.96-4.38,1.45-6.9,1.45s-4.92-.48-6.99-1.45c-2.07-.96-3.71-2.42-4.92-4.37-1.21-1.95-1.81-4.38-1.81-7.31v-26.42h3.27v26.42c0,2.27,.44,4.17,1.34,5.71,.89,1.54,2.12,2.69,3.7,3.46,1.57,.77,3.38,1.15,5.41,1.15s3.81-.38,5.38-1.15c1.57-.77,2.8-1.92,3.7-3.46,.89-1.54,1.34-3.44,1.34-5.71v-26.42Z"/>
    <path class="cls-1" d="M541.29,667.24h12.67c2.69,0,5.04,.44,7.02,1.31s3.51,2.17,4.59,3.87c1.08,1.71,1.62,3.8,1.62,6.28,0,1.84-.39,3.51-1.16,5.01-.78,1.5-1.85,2.76-3.2,3.76-1.36,1.01-2.93,1.7-4.72,2.08l-1.15,.43h-13.53l-.05-2.81h11.33c2.04,0,3.73-.39,5.09-1.18,1.36-.79,2.38-1.83,3.06-3.12,.69-1.3,1.04-2.68,1.04-4.17,0-1.77-.38-3.3-1.14-4.59-.76-1.3-1.88-2.29-3.36-2.99-1.48-.7-3.3-1.05-5.44-1.05h-9.38v36.17h-3.29v-39.01Zm24.09,39.01l-10.1-17.44,3.53-.03,10.07,17.12v.35h-3.51Z"/>
    <path class="cls-1" d="M621.27,667.24v2.84h-29.98v-2.84h29.98Zm-13.37,0v39.01h-3.27v-39.01h3.27Z"/>
    <path class="cls-1" d="M635.19,667.24v39.01h-3.3v-39.01h3.3Z"/>
    <path class="cls-1" d="M649.34,667.24h2.92l.35,21.97v17.04h-3.27v-39.01Zm1.02,0h3.32l14.42,34.35,14.44-34.35h3.3l-16.48,39.01h-2.52l-16.48-39.01Zm33.62,0h2.92v39.01h-3.3v-17.04l.37-21.97Z"/>
    <path class="cls-1" d="M703.69,667.24v39.01h-3.3v-39.01h3.3Zm20.82,0v2.84h-21.81v-2.84h21.81Zm-2.6,17.5v2.81h-19.21v-2.81h19.21Zm2.73,18.7v2.81h-21.95v-2.81h21.95Z"/>
    <path class="cls-1" d="M733.18,704.29c0-.62,.2-1.16,.6-1.59,.4-.44,.95-.65,1.65-.65s1.28,.22,1.69,.65c.41,.44,.62,.97,.62,1.59s-.2,1.12-.62,1.56c-.41,.43-.97,.64-1.69,.64s-1.25-.21-1.65-.64c-.4-.43-.6-.95-.6-1.56Z"/>
    <path class="cls-1" d="M764.55,667.24l11.82,21.25,11.92-21.25h3.8l-14.07,24.3v14.71h-3.3v-14.71l-14.09-24.3h3.91Z"/>
    <path class="cls-1" d="M829.4,684.65v4.18c0,2.73-.35,5.2-1.06,7.41-.71,2.21-1.73,4.1-3.06,5.67-1.33,1.57-2.92,2.78-4.78,3.62-1.86,.84-3.95,1.26-6.27,1.26s-4.34-.42-6.2-1.26c-1.87-.84-3.47-2.05-4.81-3.62-1.34-1.57-2.38-3.46-3.11-5.67-.73-2.21-1.1-4.68-1.1-7.41v-4.18c0-2.73,.36-5.2,1.09-7.41s1.75-4.1,3.09-5.67c1.34-1.57,2.94-2.78,4.8-3.62,1.85-.84,3.92-1.26,6.19-1.26s4.41,.42,6.27,1.26,3.46,2.05,4.8,3.62c1.34,1.57,2.37,3.46,3.08,5.67,.71,2.21,1.07,4.68,1.07,7.41Zm-3.27,4.18v-4.23c0-2.31-.26-4.38-.79-6.22-.53-1.84-1.3-3.41-2.33-4.72-1.03-1.3-2.28-2.3-3.77-3-1.48-.7-3.17-1.05-5.06-1.05s-3.49,.35-4.96,1.05c-1.46,.7-2.71,1.7-3.74,3-1.03,1.31-1.81,2.88-2.36,4.72-.54,1.84-.81,3.91-.81,6.22v4.23c0,2.32,.27,4.41,.81,6.26,.54,1.85,1.33,3.43,2.37,4.74,1.04,1.31,2.29,2.32,3.77,3.01,1.47,.7,3.13,1.05,4.97,1.05s3.6-.35,5.06-1.05c1.46-.7,2.71-1.7,3.73-3.01,1.02-1.31,1.79-2.89,2.32-4.74,.53-1.85,.79-3.93,.79-6.26Z"/>
    <path class="cls-1" d="M864.86,667.24h3.3v26.42c0,2.93-.62,5.37-1.85,7.31-1.23,1.95-2.89,3.4-4.97,4.37-2.08,.96-4.38,1.45-6.9,1.45s-4.92-.48-6.99-1.45c-2.07-.96-3.71-2.42-4.92-4.37-1.21-1.95-1.81-4.38-1.81-7.31v-26.42h3.27v26.42c0,2.27,.44,4.17,1.34,5.71,.89,1.54,2.12,2.69,3.7,3.46,1.57,.77,3.38,1.15,5.41,1.15s3.81-.38,5.38-1.15c1.57-.77,2.8-1.92,3.7-3.46,.89-1.54,1.34-3.44,1.34-5.71v-26.42Z"/>
    <path class="cls-1" d="M880.89,667.24h12.67c2.69,0,5.04,.44,7.02,1.31s3.51,2.17,4.59,3.87c1.08,1.71,1.62,3.8,1.62,6.28,0,1.84-.39,3.51-1.16,5.01-.78,1.5-1.85,2.76-3.2,3.76-1.36,1.01-2.93,1.7-4.72,2.08l-1.15,.43h-13.53l-.05-2.81h11.33c2.04,0,3.73-.39,5.09-1.18,1.36-.79,2.38-1.83,3.06-3.12,.69-1.3,1.04-2.68,1.04-4.17,0-1.77-.38-3.3-1.14-4.59-.76-1.3-1.88-2.29-3.36-2.99-1.48-.7-3.3-1.05-5.44-1.05h-9.38v36.17h-3.29v-39.01Zm24.09,39.01l-10.1-17.44,3.53-.03,10.07,17.12v.35h-3.51Z"/>
    <path class="cls-1" d="M934.48,667.24l7.13,28.43,2.15,10.58h-2.65l-10-39.01h3.38Zm9.83,28.7l8.47-28.7h2.65l-2.14,8.52-9.03,30.49h-2.54l2.6-10.32Zm11.41-28.7l8.36,28.7,2.57,10.32h-2.54l-8.84-30.49-2.17-8.52h2.62Zm11.12,28.43l7.02-28.43h3.38l-9.97,39.01h-2.65l2.22-10.58Z"/>
    <path class="cls-1" d="M998.84,669.57l-13.5,36.68h-3.43l14.74-39.01h2.38l-.19,2.33Zm9.86,22.91v2.84h-20.71v-2.84h20.71Zm2.41,13.77l-13.53-36.68-.19-2.33h2.39l14.76,39.01h-3.43Z"/>
    <path class="cls-1" d="M1020.96,667.24l11.82,21.25,11.92-21.25h3.8l-14.07,24.3v14.71h-3.3v-14.71l-14.09-24.3h3.91Z"/>
  </g>
  <g>
    <path class="cls-1" d="M296.55,590.06c-.33-8.69-2.86-17.38-7.15-24.96-7.81-13.84-20.9-24.19-35.33-30.84-14.43-6.65-30.22-9.84-45.99-11.78-6.03-.75-12.3-1.39-17.5-4.54-5.19-3.15-8.93-9.65-6.83-15.35,1.33-3.59,4.62-6.09,8.03-7.8,13.17-6.6,32.31-3.96,42.69,6.79,3.01,3.08,7.81,3.58,11.61,1.54l14.15-7.63c5.41-2.95,6.71-10.29,2.48-14.77-20.71-21.9-61.3-26.13-87.88-14.4-9.68,3.58-16.85,9.68-21.51,16.84-7.48,11.52-9.8,25.55-6.19,37.93,2.21,7.62,6.67,14.6,13.57,19.99,19.18,15,43.96,13.75,66.19,20.49,5.11,1.55,10.18,4.75,11.88,9.81,1.58,4.73-.26,10.14-3.7,13.77-3.44,3.62-8.23,5.68-13.07,6.89-49.06,12.29-57.6-44.15-88.81-65.38-7.45-5.07-15.84-8.98-24.57-11.41-14.95-4.18-30.93-4.02-45.04,2.04-.82-3.58-.8-8.36,1.08-11.75,1.48-2.68,4.14-4.55,6.99-5.67,13.07-5.15,23.67,2.08,36.41,.67,.37-.04,.74-.1,1.1-.18,5.26-1.15,8.92-6.12,8.32-11.58l-2.04-17.66c-.57-4.73-4.15-8.5-8.81-9.29-6.85-1.16-13.6-2.64-20.22-4.48-19.19-5.27-37.36-13.4-54.2-24.54-7.1-4.67-16.52,.61-16.34,9.1,6.22,65.04,6.63,130.6,6.63,195.89,0,7.63,8.53,12.15,14.76,7.81,7.65-5.28,15.36-9.68,23.04-13.36,1.14-.55,2.28-1.08,3.41-1.59,.97-.44,2.39-1.03,4.09-1.72,7.76-3.09,21.35-7.99,24.58-8.29,3.65-.97,7.24-1.76,10.75-2.4,4.17-.79,7.28-4.19,7.68-8.42l1.51-15.84c.47-5.27-3.41-9.86-8.64-10.33-6.85-.61-16.74-.57-27.56,2.54-1.17,.34-2.34,.46-3.48,.37-4.82-.37-8.85-4.31-8.82-9.5,0-.14,.03-.22,.03-.22,0-.61,0-1.18,.03-1.79,1.27-20.57,17.91-26.89,34.09-23.79,14.65,2.81,19.67,10.23,26.17,22.46,5.57,10.49,12.92,19.99,21.41,28.27,17.21,16.77,39.1,28.65,62.24,34.92,15.55,4.22,32.1,6.12,47.78,2.39,15.67-3.73,30.38-13.73,37.06-28.39,2.98-6.53,4.21-13.69,3.93-20.86Zm-163.01-34.31c-.81,.68-1.8,1.01-2.78,1.01-1.25,0-2.48-.53-3.35-1.56-2.43-2.91-4.79-5.4-7.2-7.61-14.12-12.88-35.05-15.62-50.9-6.66-2.09,1.18-4.75,.44-5.93-1.65-1.18-2.09-.44-4.75,1.65-5.93,9.59-5.42,20.61-7.45,31.87-5.89,10.78,1.5,21.14,6.36,29.18,13.7,2.71,2.47,5.33,5.24,8.02,8.46,1.54,1.84,1.29,4.59-.56,6.13Z"/>
    <g>
      <path class="cls-1" d="M475.07,597.05c-2.24-.04-6.02-.48-9-3.09-3.85-3.39-4.49-8.55-4.49-11.76,0-4.95-1.14-24.37-1.14-29.33,0-28.17,1.14-55.98-19.05-75.4-21.7-21.7-71.6-24.38-99.39-6.47-10.29,6.47-19.05,14.09-25.52,22.85l25.52,25.51c10.28-16.75,24.37-24.37,40.75-24.37,15.23-1.14,29.33,6.47,33.13,21.7-34.28,8.77-77.7,12.95-97.12,47.23-8.76,16.75-6.47,38.46,6.47,52.17,10.28,11.43,26.66,15.24,42.27,15.24,24.38,0,47.23-4.95,62.46-26.66,7.61,17.9,24.38,26.66,44.56,26.66,2.67,0,6.48-1.14,8.77-1.14v-33.13h-8.21Zm-98.8,4.57c-11.43,0-20.57-4.95-20.57-17.9s10.28-17.89,22.85-20.56l36.94-10.29c.38,0,1.52,10.29,1.52,10.29,1.14,24.37-19.05,38.46-40.75,38.46Z"/>
      <path class="cls-1" d="M658.96,597.05c-2.25-.04-6.03-.48-9.01-3.09-3.85-3.39-4.49-8.55-4.49-11.76,0-4.95-1.14-24.37-1.14-29.33,0-28.17,1.14-55.98-19.04-75.4-21.71-21.7-71.6-24.38-99.4-6.47-10.28,6.47-19.05,14.09-25.52,22.85l25.52,25.51c10.28-16.75,24.38-24.37,40.75-24.37,15.23-1.14,29.33,6.47,33.13,21.7-34.28,8.77-77.69,12.95-97.12,47.23-8.76,16.75-6.47,38.46,6.47,52.17,10.29,11.43,26.66,15.24,42.28,15.24,24.37,0,47.22-4.95,62.45-26.66,7.62,17.9,24.38,26.66,44.57,26.66,2.67,0,6.47-1.14,8.76-1.14v-33.13h-8.2Zm-98.81,4.57c-11.42,0-20.57-4.95-20.57-17.9s10.29-17.89,22.85-20.56l36.94-10.29c.38,0,1.52,10.29,1.52,10.29,1.14,24.37-19.05,38.46-40.75,38.46Z"/>
      <path class="cls-1" d="M724.93,414.13v217.19h-43.42v-236.12h.04c16.68,1.9,32.26,7.81,42.08,17.63,.46,.42,.88,.88,1.3,1.29Z"/>
      <path class="cls-1" d="M1064.15,631.32h-17.83c-6.8-17.82-6.14-38.1-5.49-57.76,.26-7.81,.52-15.9,.32-23.77-.04-1.55-1.3-2.78-2.86-2.78h-.07c-1.58,.04-2.83,1.35-2.79,2.92,.19,7.71-.07,15.71-.32,23.43-.64,19.51-1.3,39.63,5.11,57.95h-17.97c-11.43-26.66-4.95-57.51-4.95-86.83,0-7.62,0-16.76-3.81-24.38-4.96-10.28-16.76-17.9-28.18-17.9s-22.85,6.48-28.18,16.76c-4.95,8.76-4.95,19.04-4.95,29.33v83.02h-43.42v-175.87h.04c9.98,1.14,19.58,3.73,27.77,7.69,5.52,2.7,10.4,6.02,14.33,9.94,.46,.43,.88,.89,1.29,1.3v10.32c14.09-20.57,44.56-26.66,68.93-16.76,24.37,9.91,31.99,26.66,33.13,29.33,2.67,4.95,3.81,11.43,4.95,16.76,6.47,39.61-6.47,79.21,4.95,117.3Z"/>
      <path class="cls-1" d="M889.34,509.47c-3.5-10.35-8.6-19.34-15.29-27.01-6.68-7.66-14.84-13.63-24.46-17.9-9.62-4.26-20.55-6.41-32.8-6.41s-23.03,2.14-32.64,6.41c-9.62,4.27-17.75,10.24-24.39,17.9-6.64,7.67-11.71,16.67-15.2,27.01-3.5,10.34-5.25,21.53-5.25,33.56v3.55c0,12.04,1.75,23.21,5.25,33.5,3.49,10.29,8.59,19.27,15.28,26.94,6.69,7.66,14.84,13.63,24.46,17.9,9.62,4.26,20.55,6.41,32.8,6.41s23-2.14,32.56-6.41c9.57-4.27,17.7-10.24,24.39-17.9,6.69-7.66,11.78-16.65,15.29-26.94,3.49-10.29,5.24-21.45,5.24-33.5v-3.55c0-12.03-1.75-23.22-5.24-33.56Zm-31.95,37.11c0,7.52-.8,14.61-2.39,21.3-1.6,6.69-4.05,12.55-7.34,17.6-3.29,5.04-7.48,9-12.57,11.88-5.09,2.88-11.09,4.32-17.98,4.32s-13.22-1.44-18.37-4.32c-5.14-2.87-9.37-6.84-12.65-11.88-3.29-5.04-5.71-10.91-7.26-17.6-1.54-6.69-2.31-13.78-2.31-21.3v-3.55c0-7.41,.77-14.43,2.31-21.06,1.55-6.63,3.97-12.53,7.26-17.67,3.28-5.15,7.48-9.19,12.57-12.12,5.09-2.94,11.14-4.41,18.13-4.41s13.05,1.47,18.14,4.41c5.09,2.92,9.31,6.97,12.65,12.12,3.35,5.14,5.82,11.03,7.41,17.67,1.59,6.63,2.39,13.66,2.39,21.06v3.55Z"/>
    </g>
  </g>
</svg>