<?xml version="1.0" encoding="UTF-8"?>
<svg id="Mark-2" data-name="Mark" xmlns="http://www.w3.org/2000/svg" viewBox="0 0 1080 1101.98">
  <defs>
    <style>
      .cls-1 {
        fill: #3a2066;
      }
    </style>
  </defs>
  <path class="cls-1" d="M869.03,589.34c-.76-19.97-6.58-39.94-16.43-57.37-17.96-31.81-48.04-55.61-81.22-70.89-33.18-15.28-69.47-22.61-105.72-27.09-13.86-1.72-28.28-3.2-40.23-10.44-11.94-7.23-20.53-22.18-15.7-35.28,3.05-8.25,10.61-13.99,18.46-17.92,30.28-15.17,74.28-9.1,98.12,15.6,6.92,7.09,17.96,8.24,26.69,3.54l32.53-17.54c12.44-6.78,15.43-23.66,5.69-33.96-47.61-50.35-140.9-60.07-202.02-33.11-22.26,8.23-38.73,22.24-49.44,38.71-17.19,26.48-22.53,58.73-14.23,87.19,5.09,17.51,15.34,33.57,31.2,45.96,44.1,34.48,101.05,31.61,152.16,47.11,11.74,3.57,23.41,10.92,27.3,22.56,3.63,10.88-.6,23.32-8.5,31.65-7.9,8.32-18.92,13.05-30.05,15.84-112.78,28.26-132.41-101.48-204.15-150.29-17.13-11.65-36.41-20.65-56.49-26.23-34.37-9.6-71.1-9.23-103.54,4.69-1.89-8.24-1.83-19.21,2.49-27.02,3.4-6.15,9.52-10.46,16.07-13.03,30.04-11.84,54.42,4.78,83.69,1.54,.86-.1,1.71-.22,2.53-.41,12.09-2.64,20.51-14.06,19.13-26.63l-4.7-40.6c-1.31-10.88-9.55-19.55-20.26-21.36-15.75-2.66-31.26-6.07-46.48-10.3-44.11-12.12-85.87-30.8-124.58-56.42-16.31-10.73-37.98,1.4-37.56,20.92,14.29,149.51,15.24,300.2,15.24,450.28,0,17.55,19.6,27.93,33.93,17.96,17.59-12.13,35.3-22.24,52.97-30.7,2.61-1.26,5.23-2.48,7.84-3.65,2.23-1.01,5.5-2.37,9.41-3.95,17.84-7.11,49.08-18.37,56.51-19.05,8.4-2.22,16.64-4.04,24.71-5.52,9.58-1.81,16.74-9.64,17.65-19.36l3.46-36.41c1.07-12.12-7.83-22.67-19.87-23.74-15.74-1.4-38.47-1.32-63.35,5.85-2.69,.78-5.39,1.05-7.99,.84-11.08-.84-20.34-9.9-20.28-21.84,0-.33,.08-.5,.08-.5,0-1.4,0-2.72,.08-4.12,2.91-47.28,41.17-61.82,78.36-54.69,33.67,6.46,45.21,23.52,60.15,51.62,12.81,24.12,29.69,45.95,49.22,64.99,39.57,38.56,89.88,65.85,143.07,80.26,35.75,9.69,73.79,14.07,109.82,5.5,36.03-8.57,69.84-31.55,85.19-65.25,6.85-15.02,9.67-31.48,9.04-47.94Zm-374.72-78.86c-1.86,1.56-4.14,2.32-6.39,2.32-2.87,0-5.71-1.22-7.69-3.59-5.59-6.7-11-12.42-16.55-17.49-32.45-29.61-80.56-35.91-117-15.32-4.81,2.71-10.91,1.02-13.63-3.79-2.72-4.81-1.02-10.91,3.79-13.63,22.05-12.45,47.38-17.13,73.25-13.53,24.77,3.44,48.59,14.63,67.07,31.5,6.23,5.68,12.26,12.05,18.43,19.45,3.54,4.24,2.97,10.55-1.28,14.08Z"/>
  <g>
    <path class="cls-1" d="M249.25,739.28h58.94v19.42h-34.19v10.1h31.97v19.42h-31.97v10.88h36.41l-1.89,19.42h-59.27v-79.25Z"/>
    <path class="cls-1" d="M317.07,774.58h39.63v21.09h-39.63v-21.09Z"/>
    <path class="cls-1" d="M390,792.23c.44,2.96,1.61,5.22,3.5,6.77s4.75,2.33,8.6,2.33c3.11,0,5.38-.5,6.83-1.5,1.44-1,2.17-2.46,2.17-4.38,0-1.48-.5-2.66-1.5-3.55-1-.89-2.87-1.63-5.61-2.22l-10.77-2.11c-9.25-1.85-15.97-4.74-20.15-8.66-4.18-3.92-6.27-9.14-6.27-15.65,0-4.22,.79-7.94,2.39-11.16,1.59-3.22,3.85-5.94,6.77-8.16,2.92-2.22,6.47-3.88,10.66-5,4.18-1.11,8.86-1.67,14.04-1.67,5.62,0,10.49,.63,14.6,1.89,4.11,1.26,7.51,3.02,10.21,5.27,2.7,2.26,4.75,4.87,6.16,7.83,1.4,2.96,2.26,6.14,2.55,9.55l-24.53,2.22c-.67-2.89-1.76-4.87-3.27-5.94-1.52-1.07-3.68-1.61-6.49-1.61-3.04,0-5.22,.48-6.55,1.44-1.33,.96-2,2.18-2,3.66,0,1.26,.5,2.29,1.5,3.11,1,.82,2.9,1.52,5.72,2.11l10.66,2.22c4.81,1.04,8.9,2.28,12.26,3.72,3.37,1.44,6.11,3.16,8.21,5.16,2.11,2,3.64,4.27,4.61,6.83,.96,2.55,1.44,5.5,1.44,8.83,0,8.58-2.98,15.23-8.94,19.92-5.96,4.7-14.71,7.05-26.25,7.05-5.85,0-10.93-.65-15.26-1.94s-7.94-3.16-10.82-5.61c-2.89-2.44-5.09-5.42-6.6-8.94-1.52-3.51-2.42-7.45-2.72-11.82h24.86Z"/>
    <path class="cls-1" d="M492.45,805.77h-25.09l-3.44,12.76h-24.86l25.75-79.25h31.08l25.53,79.25h-25.42l-3.55-12.76Zm-19.76-19.65h14.43l-7.22-26.31-7.21,26.31Z"/>
    <path class="cls-1" d="M581.47,805.77h-25.09l-3.44,12.76h-24.86l25.75-79.25h31.08l25.53,79.25h-25.42l-3.55-12.76Zm-19.76-19.65h14.43l-7.21-26.31-7.21,26.31Z"/>
    <path class="cls-1" d="M619.33,739.28h25.2v57.61h33.19l-2.11,21.64h-56.28v-79.25Z"/>
    <path class="cls-1" d="M722.89,820.53c-6.44,0-12.12-.94-17.04-2.83-4.92-1.89-9.07-4.61-12.43-8.16-3.37-3.55-5.9-7.88-7.6-12.99-1.7-5.11-2.55-10.88-2.55-17.32s.85-12.23,2.55-17.37c1.7-5.14,4.25-9.55,7.66-13.21,3.4-3.66,7.62-6.47,12.65-8.44,5.03-1.96,10.84-2.94,17.43-2.94s12.12,.94,17.04,2.83c4.92,1.89,9.06,4.61,12.43,8.16,3.37,3.55,5.9,7.86,7.6,12.93,1.7,5.07,2.55,10.82,2.55,17.26s-.87,12.27-2.61,17.48c-1.74,5.22-4.29,9.64-7.66,13.26-3.37,3.63-7.57,6.42-12.6,8.38-5.03,1.96-10.84,2.94-17.43,2.94Zm.33-21.65c9.25,0,13.88-6.66,13.88-19.98s-4.63-19.98-13.88-19.98-13.88,6.66-13.88,19.98,4.62,19.98,13.88,19.98Z"/>
    <path class="cls-1" d="M773.17,739.28h21.64l25.31,40.07v-40.07h23.53v79.25h-21.42l-25.53-40.29v40.29h-23.53v-79.25Z"/>
  </g>
</svg>